<svg width="500" height="500" viewBox="0 0 500 500" fill="none" xmlns="http://www.w3.org/2000/svg">
<path d="M98.302 206.173L27.6056 242.008C25.0391 243.309 24.0131 246.445 25.3141 249.011L97.9703 392.348C99.2712 394.915 102.406 395.941 104.973 394.64L175.669 358.805C178.236 357.504 179.262 354.368 177.961 351.802L105.305 208.465C104.004 205.898 100.868 204.872 98.302 206.173Z" fill="#EBEBEB"/>
<path d="M62.3038 265.998C65.3056 263.98 66.1026 259.91 64.084 256.908C62.0653 253.906 57.9954 253.109 54.9935 255.128C51.9917 257.146 51.1947 261.216 53.2134 264.218C55.232 267.22 59.3019 268.017 62.3038 265.998Z" fill="#FAFAFA"/>
<path d="M95.5778 250.003C98.9782 248.737 100.708 244.954 99.4423 241.553C98.1762 238.153 94.3932 236.423 90.9928 237.689C87.5924 238.955 85.8622 242.738 87.1283 246.138C88.3944 249.539 92.1774 251.269 95.5778 250.003Z" fill="#FAFAFA"/>
<path d="M80.5301 289.22C81.1153 290.375 81.3448 291.678 81.1897 292.964C81.0346 294.25 80.5018 295.461 79.6586 296.444C78.8154 297.427 77.6997 298.138 76.4525 298.487C75.2053 298.836 73.8826 298.808 72.6516 298.405C71.4206 298.003 70.3365 297.245 69.5364 296.226C68.7362 295.208 68.256 293.975 68.1563 292.684C68.0566 291.393 68.3419 290.101 68.9763 288.972C69.6106 287.842 70.5654 286.927 71.7201 286.34C73.2706 285.555 75.069 285.418 76.7208 285.958C78.3725 286.498 79.7425 287.671 80.5301 289.22Z" fill="#FAFAFA"/>
<path d="M115.238 275.162C115.361 271.546 112.529 268.516 108.914 268.394C105.298 268.271 102.268 271.103 102.146 274.718C102.023 278.334 104.855 281.364 108.47 281.486C112.086 281.609 115.116 278.777 115.238 275.162Z" fill="#FAFAFA"/>
<path d="M96.55 320.84C97.1418 321.993 97.3784 323.295 97.2297 324.583C97.0811 325.87 96.554 327.084 95.715 328.072C94.876 329.059 93.763 329.776 92.5166 330.131C91.2703 330.486 89.9467 330.463 88.7134 330.065C87.48 329.668 86.3923 328.913 85.5878 327.897C84.7834 326.881 84.2984 325.65 84.1942 324.358C84.09 323.066 84.3713 321.773 85.0025 320.641C85.6336 319.509 86.5863 318.59 87.74 318C89.2851 317.21 91.0808 317.065 92.7326 317.597C94.3844 318.13 95.7574 319.296 96.55 320.84Z" fill="#FAFAFA"/>
<path d="M130.56 303.6C131.146 304.756 131.377 306.059 131.222 307.345C131.067 308.632 130.535 309.843 129.691 310.827C128.848 311.811 127.732 312.522 126.484 312.871C125.236 313.221 123.913 313.192 122.682 312.789C121.45 312.386 120.366 311.627 119.566 310.607C118.766 309.588 118.286 308.354 118.188 307.062C118.089 305.77 118.376 304.478 119.012 303.349C119.648 302.22 120.604 301.305 121.76 300.72C123.309 299.936 125.106 299.799 126.756 300.339C128.406 300.879 129.774 302.052 130.56 303.6Z" fill="#FAFAFA"/>
<path d="M112.58 352.46C113.164 353.616 113.391 354.919 113.235 356.204C113.078 357.49 112.544 358.7 111.699 359.682C110.855 360.664 109.739 361.373 108.491 361.721C107.244 362.069 105.922 362.039 104.691 361.635C103.461 361.232 102.378 360.472 101.578 359.453C100.779 358.434 100.3 357.201 100.202 355.91C100.103 354.619 100.39 353.328 101.025 352.199C101.66 351.071 102.615 350.156 103.77 349.57C104.538 349.18 105.375 348.946 106.234 348.881C107.093 348.815 107.956 348.919 108.774 349.188C109.593 349.456 110.35 349.883 111.003 350.445C111.656 351.006 112.192 351.691 112.58 352.46Z" fill="#FAFAFA"/>
<path d="M146.59 335.22C147.175 336.375 147.405 337.678 147.25 338.964C147.095 340.25 146.562 341.461 145.719 342.444C144.875 343.427 143.76 344.138 142.512 344.487C141.265 344.836 139.943 344.808 138.712 344.405C137.481 344.003 136.396 343.245 135.596 342.226C134.796 341.208 134.316 339.975 134.216 338.684C134.117 337.393 134.402 336.101 135.036 334.972C135.671 333.842 136.625 332.927 137.78 332.34C139.33 331.555 141.129 331.418 142.781 331.958C144.432 332.498 145.802 333.671 146.59 335.22Z" fill="#FAFAFA"/>
<path d="M60.53 254.61C60.1082 256.628 59.523 258.607 58.78 260.53C58.1942 262.504 57.4484 264.427 56.55 266.28C56.961 264.261 57.5431 262.28 58.2901 260.36C58.8712 258.383 59.6206 256.459 60.53 254.61Z" fill="#E0E0E0"/>
<path d="M93.7901 237.44C93.382 239.46 92.7998 241.441 92.0501 243.36C91.4678 245.34 90.7184 247.267 89.8101 249.12C90.2246 247.101 90.8101 245.12 91.5601 243.2C92.1471 241.223 92.8928 239.297 93.7901 237.44Z" fill="#E0E0E0"/>
<path d="M76.88 286.18C76.5826 288.269 76.1109 290.329 75.47 292.34C74.9985 294.39 74.3562 296.397 73.55 298.34C73.8614 296.256 74.3465 294.203 75 292.2C75.4624 290.146 76.0911 288.132 76.88 286.18Z" fill="#E0E0E0"/>
<path d="M110.45 268.93C110.249 270.959 109.87 272.967 109.32 274.93C108.946 276.92 108.401 278.874 107.69 280.77C107.89 278.741 108.265 276.734 108.81 274.77C109.193 272.781 109.742 270.828 110.45 268.93Z" fill="#E0E0E0"/>
<path d="M91.82 317.81C91.5607 319.725 91.1289 321.613 90.53 323.45C90.094 325.336 89.4917 327.18 88.73 328.96C88.99 327.044 89.4252 325.156 90.03 323.32C90.46 321.433 91.0591 319.589 91.82 317.81Z" fill="#E0E0E0"/>
<path d="M126.78 301C126.371 302.919 125.789 304.797 125.04 306.61C124.453 308.484 123.707 310.304 122.81 312.05C123.219 310.131 123.801 308.253 124.55 306.44C125.139 304.567 125.885 302.747 126.78 301Z" fill="#E0E0E0"/>
<path d="M108.89 349.76C108.421 351.755 107.789 353.708 107 355.6C106.359 357.547 105.556 359.437 104.6 361.25C105.068 359.255 105.707 357.305 106.51 355.42C107.136 353.467 107.933 351.573 108.89 349.76Z" fill="#E0E0E0"/>
<path d="M142.66 331.47C142.375 333.683 141.913 335.87 141.28 338.01C140.822 340.193 140.193 342.336 139.4 344.42C139.691 342.208 140.153 340.021 140.78 337.88C141.238 335.697 141.867 333.554 142.66 331.47Z" fill="#E0E0E0"/>
<path d="M158.82 351.64C158.88 351.77 148.48 357.17 135.59 363.7C122.7 370.23 112.19 375.43 112.12 375.31C112.05 375.19 122.46 369.78 135.35 363.24C148.24 356.7 158.75 351.51 158.82 351.64Z" fill="#E0E0E0"/>
<path d="M91.33 225C91.39 225.13 80.99 230.53 68.1 237.07C55.21 243.61 44.7 248.8 44.63 248.67C44.56 248.54 55 243.09 67.86 236.55C80.72 230.01 91.26 224.82 91.33 225Z" fill="#E0E0E0"/>
<path d="M69.62 243.35C69.5607 243.363 69.4993 243.363 69.44 243.35C69.44 243.35 69.38 243.35 69.36 243.35L69.82 243.11C69.82 243.19 69.82 243.31 69.66 243.38C69.5 243.45 69.4 243.43 69.36 243.38L69.82 243.14C69.8233 243.163 69.8233 243.187 69.82 243.21C69.77 243.277 69.6999 243.326 69.62 243.35Z" fill="#E0E0E0"/>
<path d="M133.84 364C133.71 364.07 119.11 335.51 101.23 300.24C83.35 264.97 68.96 236.3 69.09 236.24C69.22 236.18 83.81 264.7 101.7 300C119.59 335.3 134 363.93 133.84 364Z" fill="#E0E0E0"/>
<path d="M36.9101 384.49C36.7901 406.89 36.7101 443.06 36.6701 459.68C36.6648 462.033 37.5939 464.293 39.2533 465.961C40.9127 467.63 43.1667 468.572 45.5201 468.58L106.71 468.86C109.067 468.868 111.331 467.941 113.005 466.282C114.679 464.622 115.627 462.367 115.64 460.01L115.98 385.48C116.001 380.245 113.944 375.216 110.259 371.498C106.575 367.78 101.565 365.676 96.3301 365.65V354.65L56.2601 354.47V364.83H56.1101C50.9818 364.968 46.1089 367.098 42.5246 370.768C38.9403 374.438 36.9264 379.36 36.9101 384.49Z" fill="#F5F5F5"/>
<path d="M56.31 355.9L56.28 360.89L96.34 362.49L96.38 356.08L56.31 355.9Z" fill="#E0E0E0"/>
<path d="M54.7798 339.205L98.2293 339.402C99.025 339.406 99.7866 339.725 100.347 340.29C100.907 340.855 101.219 341.62 101.216 342.416L101.148 357.415C101.145 357.927 100.94 358.417 100.576 358.778C100.213 359.138 99.7207 359.339 99.2089 359.337L53.6293 359.13C53.1175 359.128 52.6275 358.922 52.2672 358.558C51.9069 358.195 51.7058 357.703 51.7081 357.191L51.7762 342.191C51.7798 341.396 52.0993 340.634 52.6645 340.074C53.2296 339.514 53.9941 339.201 54.7898 339.205L54.7798 339.205Z" fill="#F5F5F5"/>
<path d="M58.0001 359.19C57.7101 359.19 57.4901 354.75 57.5201 349.29C57.5501 343.83 57.8001 339.39 58.0901 339.39C58.3801 339.39 58.6001 343.82 58.5701 349.29C58.5401 354.76 58.3101 359.19 58.0001 359.19Z" fill="#E0E0E0"/>
<path d="M63.3 359.21C63.01 359.21 62.79 354.78 62.82 349.31C62.85 343.84 63.1 339.41 63.39 339.41C63.68 339.41 63.9 343.85 63.87 349.32C63.84 354.79 63.59 359.21 63.3 359.21Z" fill="#E0E0E0"/>
<path d="M68.58 359.24C68.29 359.24 68.07 354.8 68.1 349.34C68.13 343.88 68.38 339.44 68.67 339.44C68.96 339.44 69.18 343.87 69.15 349.34C69.12 354.81 68.87 359.24 68.58 359.24Z" fill="#E0E0E0"/>
<path d="M73.8601 359.26C73.5701 359.26 73.3501 354.83 73.3801 349.36C73.4101 343.89 73.6601 339.46 73.9501 339.46C74.2401 339.46 74.4601 343.9 74.4301 349.36C74.4001 354.82 74.1501 359.26 73.8601 359.26Z" fill="#E0E0E0"/>
<path d="M79.1401 359.29C78.8501 359.29 78.6301 354.85 78.6601 349.38C78.6901 343.91 78.9401 339.48 79.2301 339.49C79.5201 339.5 79.7401 343.92 79.7101 349.39C79.6801 354.86 79.4301 359.29 79.1401 359.29Z" fill="#E0E0E0"/>
<path d="M84.42 359.31C84.13 359.31 83.91 354.87 83.94 349.41C83.97 343.95 84.22 339.51 84.51 339.51C84.8 339.51 85.02 343.94 84.99 349.41C84.96 354.88 84.71 359.31 84.42 359.31Z" fill="#E0E0E0"/>
<path d="M89.7 359.33C89.41 359.33 89.19 354.9 89.22 349.43C89.25 343.96 89.5 339.53 89.79 339.53C90.08 339.53 90.3 343.97 90.27 349.44C90.24 354.91 90 359.34 89.7 359.33Z" fill="#E0E0E0"/>
<path d="M95.0001 359.36C94.7101 359.36 94.4901 354.92 94.5201 349.46C94.5501 344 94.8001 339.56 95.0901 339.56C95.3801 339.56 95.6001 343.99 95.5701 349.46C95.5401 354.93 95.2701 359.36 95.0001 359.36Z" fill="#E0E0E0"/>
<path d="M103.994 395.577L49.545 395.33C48.7277 395.327 48.0621 395.986 48.0583 396.804L47.8995 431.813C47.8958 432.631 48.5554 433.296 49.3727 433.3L103.822 433.547C104.64 433.551 105.305 432.891 105.309 432.074L105.468 397.064C105.471 396.247 104.812 395.581 103.994 395.577Z" fill="#EBEBEB"/>
<path d="M101.46 430.94C101.441 430.73 101.441 430.52 101.46 430.31C101.46 429.84 101.46 429.25 101.46 428.54C101.46 426.91 101.46 424.68 101.39 421.88C101.39 416.08 101.32 407.88 101.28 397.98L101.69 398.4L51.38 398.28L51.9 397.76V402.11C51.9 403.56 51.9 404.99 51.9 406.42C51.9 409.27 51.9 412.08 51.85 414.84C51.85 420.35 51.78 425.66 51.75 430.71L51.27 430.22L87.37 430.62L97.78 430.8L100.58 430.87L101.58 430.93C101.283 430.978 100.981 430.998 100.68 430.99H97.98L87.68 431.08L51.25 431.15H50.77V430.66C50.77 425.66 50.77 420.31 50.77 414.79C50.77 412.03 50.77 409.23 50.77 406.37C50.77 404.95 50.77 403.51 50.77 402.06V397.71C50.3 398.18 51.41 397.07 51.3 397.19L101.62 397.52H102V398C101.87 408 101.75 416.3 101.67 422.16C101.67 424.92 101.57 427.16 101.54 428.73C101.54 429.41 101.54 429.96 101.48 430.42C101.492 430.594 101.485 430.768 101.46 430.94Z" fill="#E0E0E0"/>
<path d="M93.7701 408.61C93.7701 408.91 86.1101 409.11 76.6701 409.06C67.2301 409.01 59.5701 408.75 59.5701 408.46C59.5701 408.17 67.2301 407.97 76.6801 408.01C86.1301 408.05 93.7701 408.32 93.7701 408.61Z" fill="#E0E0E0"/>
<path d="M93.74 414.43C93.74 414.72 86.09 414.92 76.64 414.88C67.19 414.84 59.55 414.56 59.55 414.27C59.55 413.98 67.2001 413.78 76.6501 413.82C86.1001 413.86 93.75 414.14 93.74 414.43Z" fill="#E0E0E0"/>
<path d="M93.72 420C93.72 420.29 86.06 420.49 76.62 420.45C67.18 420.41 59.52 420.14 59.52 419.85C59.52 419.56 67.18 419.36 76.62 419.4C86.06 419.44 93.72 419.72 93.72 420Z" fill="#E0E0E0"/>
<path d="M94.0001 365.3C94.0001 365.59 85.6501 365.78 75.34 365.74C65.03 365.7 56.6801 365.42 56.6801 365.13C56.6801 364.84 65.0401 364.64 75.3501 364.69C85.6601 364.74 94.0001 365 94.0001 365.3Z" fill="#E0E0E0"/>
<path d="M40.0001 455.38C39.8398 454.211 39.7796 453.03 39.8201 451.85C39.8201 449.4 39.7601 446.16 39.7201 442.23C39.7201 434.11 39.7201 422.89 39.8101 410.5C39.8701 404.31 39.9301 398.42 39.9801 393.03C40.0301 387.64 40.5701 382.68 42.3601 378.9C43.6664 375.877 45.9009 373.348 48.7401 371.68C49.5173 371.25 50.3432 370.914 51.2001 370.68C51.4992 370.594 51.8089 370.55 52.1201 370.55C51.0451 370.954 50.0021 371.439 49.0001 372C46.3124 373.732 44.2187 376.244 43.0001 379.2C41.4101 382.86 41.0001 387.7 41.0001 393C41.0001 398.3 40.9401 404.28 40.9101 410.47C40.8201 422.86 40.6701 434.08 40.5201 442.19C40.4201 446.12 40.3401 449.37 40.2801 451.81C40.2782 453.005 40.1846 454.199 40.0001 455.38Z" fill="white"/>
<path d="M112.82 466C111.879 465.792 110.959 465.501 110.07 465.13C109.21 464.81 108.15 464.43 106.89 464.06C105.63 463.69 104.23 463.18 102.63 462.79C98.9175 461.762 95.1476 460.954 91.34 460.37C86.6728 459.693 81.9658 459.325 77.25 459.27C72.5328 459.284 67.822 459.618 63.15 460.27C59.3348 460.818 55.555 461.59 51.83 462.58C50.23 462.96 48.83 463.44 47.56 463.81C46.29 464.18 45.24 464.54 44.37 464.86C43.4816 465.225 42.5609 465.507 41.62 465.7C42.4448 465.207 43.3155 464.795 44.22 464.47C45.07 464.1 46.12 463.67 47.37 463.26C48.62 462.85 50.02 462.26 51.63 461.86C55.3592 460.764 59.1577 459.918 63 459.33C67.7144 458.628 72.4736 458.27 77.24 458.26C82.0094 458.307 86.7689 458.705 91.48 459.45C95.3175 460.087 99.109 460.976 102.83 462.11C104.43 462.55 105.83 463.11 107.07 463.54C108.31 463.97 109.37 464.41 110.21 464.79C111.118 465.107 111.992 465.512 112.82 466Z" fill="white"/>
<path d="M474.08 146.41C472.95 139.8 467.03 133.86 460.34 134.16C458.361 134.334 456.438 134.905 454.685 135.84C452.933 136.775 451.387 138.054 450.14 139.6C449.228 140.622 448.396 141.711 447.65 142.86C447.023 141.641 446.304 140.471 445.5 139.36C444.43 137.688 443.03 136.251 441.386 135.137C439.743 134.023 437.89 133.255 435.94 132.88C429.31 131.88 422.81 137.15 420.94 143.6C419.07 150.05 421.22 157.11 424.94 162.67C428.66 168.23 435.03 175.44 446.25 178.67C453.82 177.34 463.71 170.11 468.02 164.98C472.33 159.85 475.21 153 474.08 146.41Z" fill="#EBEBEB"/>
<path d="M472.22 158.46H471.35L468.86 158.37L459.71 157.96L459.87 157.85C458.87 160.76 457.77 164.18 456.53 167.92L456.33 168.53L456.15 167.91C454.77 163.16 453.23 157.84 451.6 152.24C451.1 150.5 450.6 148.79 450.12 147.13L450.51 147.18L444 157.07L443.94 157.16H443.83L427.74 156.23L423.18 155.93L421.98 155.84C421.843 155.832 421.706 155.815 421.57 155.79C421.57 155.79 421.71 155.79 421.98 155.79H423.19L427.75 155.97L443.85 156.74L443.67 156.83L450.15 146.93L450.41 146.53L450.54 146.98C451.02 148.65 451.54 150.36 452.02 152.1C453.63 157.71 455.17 163.03 456.53 167.78H456.15L459.57 157.78V157.66H459.69L468.83 158.21L471.31 158.39H471.96C472.05 158.4 472.138 158.423 472.22 158.46Z" fill="#FAFAFA"/>
<path d="M362.29 181.23C362.412 181.126 362.542 181.032 362.68 180.95L363.85 180.18C364.496 179.786 365.118 179.352 365.71 178.88C366.55 178.28 367.358 177.635 368.13 176.95L369.51 175.73C369.97 175.28 370.45 174.79 370.94 174.29C371.468 173.773 371.968 173.229 372.44 172.66C372.93 172.07 373.49 171.49 373.96 170.81C376.271 167.862 378.188 164.625 379.66 161.18C381.467 157.013 382.595 152.584 383 148.06C383.23 145.549 383.23 143.021 383 140.51C382.684 137.848 382.227 135.204 381.63 132.59C380.49 127.23 378.98 121.49 379.44 115.4C379.9 109.31 382.32 103.4 385.54 97.8701C388.76 92.3401 392.54 87.2701 397.25 83.4101C399.539 81.5 402.109 79.9551 404.87 78.8301C407.53 77.8134 410.309 77.1412 413.14 76.8301C418.359 76.3366 423.608 76.253 428.84 76.5801C433.365 76.816 437.902 76.6218 442.39 76.0001C446.098 75.479 449.659 74.199 452.85 72.2401C455.278 70.7594 457.372 68.7913 459 66.4601C460.032 64.9994 460.797 63.3675 461.26 61.6401C461.57 60.4601 461.63 59.8101 461.67 59.8201C461.625 60.4444 461.525 61.0635 461.37 61.6701C460.948 63.4273 460.205 65.0917 459.18 66.5801C457.574 68.9522 455.489 70.9619 453.06 72.4801C449.843 74.4915 446.244 75.8127 442.49 76.3601C437.968 77.0121 433.393 77.2231 428.83 76.9901C423.623 76.6951 418.402 76.7953 413.21 77.2901C410.424 77.6134 407.689 78.2853 405.07 79.2901C402.363 80.4006 399.843 81.9218 397.6 83.8001C392.98 87.5901 389.25 92.6601 386.02 98.1101C382.79 103.56 380.44 109.44 380.02 115.4C379.6 121.36 381.02 127.06 382.17 132.45C382.764 135.09 383.215 137.761 383.52 140.45C383.76 142.994 383.76 145.556 383.52 148.1C383.064 152.674 381.875 157.144 380 161.34C378.487 164.802 376.53 168.052 374.18 171.01C373.69 171.69 373.18 172.26 372.63 172.85C372.08 173.44 371.63 173.99 371.11 174.48L369.65 175.91L368.24 177.12C367.455 177.798 366.634 178.432 365.78 179.02C365.175 179.482 364.541 179.903 363.88 180.28L362.68 181C362.557 181.089 362.427 181.166 362.29 181.23Z" fill="#E0E0E0"/>
<path d="M335.11 154.18C335.11 154.18 335.17 154.02 335.31 153.73C335.45 153.44 335.68 152.98 335.95 152.43C336.22 151.88 336.66 151.2 337.13 150.43C337.6 149.66 338.21 148.74 338.97 147.8C340.758 145.465 342.819 143.353 345.11 141.51C348.137 139.051 351.532 137.083 355.17 135.68C357.292 134.879 359.48 134.267 361.71 133.85C364.133 133.444 366.583 133.22 369.04 133.18C374.11 133.03 379.53 133.45 385.19 133.11C388.084 132.947 390.952 132.464 393.74 131.67C396.639 130.814 399.422 129.608 402.03 128.08C407.521 124.842 412.202 120.396 415.72 115.08C419.211 109.735 421.592 103.743 422.72 97.46C423.793 91.6168 423.955 85.6427 423.2 79.75C422.49 74.12 421.12 68.87 420.33 63.85C419.438 59.2014 419.37 54.4321 420.13 49.76C420.878 45.9231 422.366 42.2685 424.51 39C426.118 36.534 428.071 34.3114 430.31 32.4C431.736 31.2136 433.261 30.1529 434.87 29.23L436.16 28.58L436.61 28.38L436.19 28.63L434.93 29.33C433.35 30.2845 431.851 31.3682 430.45 32.57C428.256 34.4926 426.344 36.7144 424.77 39.17C422.679 42.4181 421.23 46.0366 420.5 49.83C419.781 54.4572 419.872 59.1742 420.77 63.77C421.57 68.77 422.96 74 423.7 79.68C424.472 85.6279 424.317 91.6596 423.24 97.56C422.115 103.914 419.717 109.976 416.19 115.38C412.628 120.774 407.881 125.282 402.31 128.56C399.66 130.106 396.833 131.325 393.89 132.19C391.067 132.995 388.162 133.482 385.23 133.64C379.51 133.97 374.1 133.53 369.05 133.64C366.618 133.674 364.191 133.888 361.79 134.28C359.582 134.678 357.414 135.271 355.31 136.05C348.947 138.484 343.36 142.592 339.14 147.94C338.38 148.86 337.81 149.77 337.27 150.52C336.73 151.27 336.36 151.97 336.05 152.52C335.74 153.07 335.53 153.52 335.36 153.78C335.19 154.04 335.11 154.18 335.11 154.18Z" fill="#E0E0E0"/>
<path d="M424.18 38.66C424.718 38.9117 425.233 39.2095 425.72 39.55C426.72 40.15 428.06 41.06 429.72 42.22C438.471 48.296 446.57 55.2596 453.89 63C455.28 64.49 456.39 65.71 457.13 66.58C457.54 67.0207 457.911 67.4958 458.24 68C457.795 67.6122 457.381 67.191 457 66.74C456.13 65.86 455 64.74 453.63 63.28C450.77 60.38 446.72 56.47 442.01 52.42C437.3 48.37 432.84 44.94 429.54 42.55L425.62 39.73C425.112 39.4128 424.63 39.055 424.18 38.66Z" fill="#E0E0E0"/>
<path d="M420.23 49.34C420.635 49.6432 421.017 49.9775 421.37 50.34L424.37 53.22C426.9 55.65 430.44 58.95 434.49 62.45C438.54 65.95 442.32 68.96 445.1 71.11L448.38 73.65C448.803 73.946 449.198 74.2808 449.56 74.65C449.102 74.4259 448.666 74.158 448.26 73.85C447.44 73.3 446.26 72.48 444.86 71.45C442.02 69.38 438.18 66.45 434.12 62.9C430.06 59.35 426.55 56.03 424.12 53.53C422.89 52.27 421.91 51.24 421.25 50.53C420.866 50.1727 420.524 49.7736 420.23 49.34Z" fill="#E0E0E0"/>
<path d="M421.55 62.45C422.462 63.0014 423.322 63.634 424.12 64.3399C425.66 65.5599 427.75 67.3399 430.01 69.3399C432.27 71.3399 434.26 73.1899 435.67 74.5599C436.478 75.2593 437.215 76.0364 437.87 76.8799C436.995 76.2801 436.169 75.6113 435.4 74.8799L429.64 69.8L423.87 64.72C423.03 64.0347 422.253 63.2749 421.55 62.45Z" fill="#E0E0E0"/>
<path d="M411.62 78.1901C412.319 78.5957 412.973 79.0751 413.57 79.6201L418.12 83.2501L422.72 86.8301C423.395 87.2802 424.016 87.8071 424.57 88.4001C423.829 88.0682 423.131 87.6486 422.49 87.1501C421.25 86.3201 419.57 85.1501 417.78 83.7001C415.99 82.2501 414.41 80.9401 413.31 79.9301C412.675 79.4243 412.107 78.8395 411.62 78.1901Z" fill="#E0E0E0"/>
<path d="M399.83 83C399.89 82.94 401.07 84.09 403.03 85.87C404.99 87.65 407.75 90 411 92.45C414.25 94.9 417.27 96.93 419.51 98.35C420.752 99.0621 421.957 99.8364 423.12 100.67C422.751 100.553 422.395 100.395 422.06 100.2C421.4 99.87 420.45 99.35 419.3 98.69C416.308 96.9326 413.423 94.9992 410.66 92.9C407.9 90.8003 405.272 88.5327 402.79 86.11C401.84 85.18 401.09 84.4 400.6 83.85C400.305 83.6038 400.046 83.3177 399.83 83Z" fill="#E0E0E0"/>
<path d="M392.35 91.91C392.44 91.78 398.27 96.09 405.35 101.53C412.43 106.97 418.11 111.47 418.01 111.59C417.91 111.71 412.1 107.41 405.01 101.97C397.92 96.53 392.26 92 392.35 91.91Z" fill="#E0E0E0"/>
<path d="M383.3 100C383.705 100.231 384.084 100.506 384.43 100.82L387.43 103.19C389.95 105.19 393.43 107.95 397.37 110.9C401.31 113.85 404.91 116.43 407.54 118.28L410.66 120.49C411.056 120.737 411.425 121.025 411.76 121.35C411.332 121.165 410.923 120.937 410.54 120.67C409.76 120.2 408.66 119.5 407.32 118.61C404.63 116.84 400.96 114.3 397.03 111.35C393.1 108.4 389.63 105.59 387.18 103.5C385.95 102.5 384.97 101.6 384.3 100.99C383.932 100.697 383.596 100.365 383.3 100Z" fill="#E0E0E0"/>
<path d="M380.56 111.72C380.65 111.59 385.56 115.25 391.61 119.88C397.66 124.51 402.41 128.37 402.31 128.49C402.21 128.61 397.31 124.96 391.26 120.33C385.21 115.7 380.46 111.84 380.56 111.72Z" fill="#E0E0E0"/>
<path d="M378 123.91C380.238 125.085 382.387 126.421 384.43 127.91C386.578 129.236 388.627 130.717 390.56 132.34C388.315 131.172 386.162 129.834 384.12 128.34C381.969 127.023 379.923 125.542 378 123.91Z" fill="#E0E0E0"/>
<path d="M365.33 135.57C366.339 136.032 367.306 136.58 368.22 137.21C369.96 138.3 372.33 139.86 374.87 141.68C377.41 143.5 379.66 145.25 381.24 146.54C382.137 147.198 382.967 147.941 383.72 148.76C382.766 148.197 381.857 147.562 381 146.86C379.35 145.64 377.08 143.96 374.54 142.14C372 140.32 369.69 138.71 368.01 137.54C367.063 136.959 366.167 136.3 365.33 135.57Z" fill="#E0E0E0"/>
<path d="M354.31 135.78C354.726 135.998 355.115 136.263 355.47 136.57C356.2 137.11 357.23 137.92 358.47 138.93C360.99 140.93 364.41 143.83 368.06 147.15C371.71 150.47 374.89 153.61 377.14 155.93C378.27 157.09 379.14 158.05 379.77 158.72C380.103 159.049 380.401 159.411 380.66 159.8C380.278 159.528 379.926 159.217 379.61 158.87L376.86 156.22C374.54 153.97 371.32 150.89 367.68 147.57C364.04 144.25 360.68 141.33 358.22 139.23L355.32 136.74C354.952 136.455 354.613 136.134 354.31 135.78Z" fill="#E0E0E0"/>
<path d="M345.06 144C345.506 144.254 345.928 144.548 346.32 144.88C347.1 145.48 348.22 146.35 349.59 147.45C352.34 149.65 356.09 152.74 360.16 156.24C364.23 159.74 367.86 162.97 370.45 165.35C371.75 166.54 372.78 167.52 373.45 168.2C373.84 168.533 374.195 168.905 374.51 169.31C374.08 169.029 373.675 168.711 373.3 168.36L370.15 165.65C367.41 163.28 363.77 160.14 359.76 156.65L349.3 147.75L346.18 145C345.777 144.702 345.402 144.367 345.06 144Z" fill="#E0E0E0"/>
<path d="M327.41 42C328.98 43.295 330.272 44.8931 331.21 46.6989C332.149 48.5047 332.713 50.4811 332.87 52.51C333.166 56.5773 332.527 60.6584 331 64.44C328.26 71.81 322 78.38 315.9 83.28C310.9 76.13 311.9 66.04 312.66 60.96C313.93 52.96 321.11 39.17 327.44 41.96" fill="#F5F5F5"/>
<path d="M320.17 97.6401C320.273 95.3676 320.975 93.1626 322.204 91.2485C323.433 89.3344 325.146 87.7791 327.17 86.7401C329.217 85.743 331.442 85.164 333.716 85.0369C335.989 84.9099 338.265 85.2373 340.41 86.0001C342.41 86.6601 344.41 87.8001 345.2 89.7601C345.491 90.6995 345.527 91.6994 345.304 92.6572C345.081 93.615 344.606 94.4961 343.93 95.2101C342.556 96.6321 340.831 97.6669 338.93 98.2101C332.54 100.3 325.93 101.15 320.18 97.7201" fill="#F5F5F5"/>
<path d="M308.25 113.29C308.785 111.636 309.489 110.041 310.35 108.53C311.233 106.85 312.31 105.279 313.56 103.85C315.033 102.082 316.62 100.412 318.31 98.85C321.429 95.9785 325.207 93.918 329.31 92.85C330.557 92.5605 331.83 92.3963 333.11 92.36C333.58 92.3181 334.054 92.3587 334.51 92.48C334.51 92.64 332.51 92.59 329.51 93.48C325.575 94.704 321.961 96.7876 318.93 99.58C317.263 101.131 315.684 102.773 314.2 104.5C312.957 105.871 311.858 107.365 310.92 108.96C310.126 110.461 309.235 111.907 308.25 113.29Z" fill="#E0E0E0"/>
<path d="M322.87 53C322.819 53.8761 322.692 54.746 322.49 55.6C322.19 57.27 321.72 59.67 321.12 62.6C319.91 68.52 318.12 76.68 316 85.6C313.88 94.52 311.64 102.6 309.94 108.43C309.09 111.33 308.37 113.67 307.84 115.27C307.618 116.12 307.316 116.947 306.94 117.74C307.055 116.872 307.245 116.015 307.51 115.18C307.98 113.39 308.6 111.06 309.34 108.26C310.89 102.42 312.98 94.35 315.14 85.39L320.51 62.39C321.18 59.57 321.73 57.23 322.15 55.39C322.325 54.5752 322.566 53.776 322.87 53Z" fill="#E0E0E0"/>
<path d="M309.81 98.15C309.523 93.3599 308.098 88.7072 305.655 84.5771C303.212 80.447 299.82 76.9583 295.76 74.4C293.69 73.12 290.91 72.13 288.94 73.57C286.97 75.01 287.06 77.97 287.7 80.32C289.116 85.215 291.951 89.5803 295.847 92.8643C299.744 96.1483 304.526 98.2034 309.59 98.77" fill="#F5F5F5"/>
<path d="M296.57 81.49C296.57 81.49 297.02 81.72 297.72 82.25C298.42 82.78 299.42 83.61 300.61 84.66C303.747 87.4177 306.353 90.7254 308.3 94.42C309.32 96.4971 309.995 98.7262 310.3 101.02C310.523 102.892 310.489 104.787 310.2 106.65C310.008 107.899 309.7 109.128 309.28 110.32C309.165 110.768 308.983 111.196 308.74 111.59C308.57 111.59 309.22 109.68 309.58 106.59C309.772 104.78 309.742 102.953 309.49 101.15C309.151 98.9534 308.476 96.8219 307.49 94.83C305.575 91.2295 303.101 87.9555 300.16 85.13C298.892 83.9888 297.694 82.7733 296.57 81.49Z" fill="#E0E0E0"/>
<path d="M351.73 104.33H119.78C113.401 104.33 108.23 109.501 108.23 115.88V458.8C108.23 465.179 113.401 470.35 119.78 470.35H351.73C358.109 470.35 363.28 465.179 363.28 458.8V115.88C363.28 109.501 358.109 104.33 351.73 104.33Z" fill="#263238"/>
<path d="M355.11 130.44H116.15V436.11H355.11V130.44Z" fill="white"/>
<path d="M245.54 452C245.54 453.937 244.966 455.83 243.889 457.44C242.813 459.05 241.284 460.305 239.494 461.046C237.705 461.786 235.736 461.98 233.836 461.601C231.937 461.223 230.193 460.289 228.824 458.919C227.455 457.549 226.523 455.804 226.147 453.904C225.77 452.004 225.966 450.035 226.708 448.247C227.451 446.458 228.707 444.93 230.318 443.855C231.929 442.78 233.823 442.208 235.76 442.21C237.045 442.21 238.318 442.463 239.505 442.955C240.692 443.448 241.771 444.169 242.679 445.078C243.587 445.987 244.307 447.067 244.798 448.254C245.289 449.442 245.541 450.715 245.54 452Z" fill="#455A64"/>
<path d="M272.95 114.87H198.57C197.896 114.87 197.35 115.416 197.35 116.09V117.69C197.35 118.364 197.896 118.91 198.57 118.91H272.95C273.624 118.91 274.17 118.364 274.17 117.69V116.09C274.17 115.416 273.624 114.87 272.95 114.87Z" fill="#455A64"/>
<path d="M333.29 154.32H142.92V186.46H333.29V154.32Z" fill="#F21365"/>
<path d="M338 228.79C338 228.79 338 228.61 338 228.25C338 227.89 338 227.34 338 226.62C338 225.16 338 222.95 337.95 219.93L338.03 220.01C314.36 220.12 235.94 220.19 143.03 220.19L143.29 219.93V228.79L143.03 228.53L281.18 228.64L322.79 228.72H334.1H337.04H334.13H322.88L281.33 228.8L142.99 228.91H142.73V219.53H143C235.93 219.53 314.35 219.61 338 219.72V219.79C338 222.79 338 225.05 338 226.52C338 227.24 338 227.77 338 228.13C338 228.49 338 228.79 338 228.79Z" fill="#263238"/>
<path d="M178.35 207.91C178.35 208.06 169.78 208.17 159.21 208.17C148.64 208.17 140.07 208.06 140.07 207.91C140.07 207.76 148.64 207.65 159.21 207.65C169.78 207.65 178.35 207.77 178.35 207.91Z" fill="#263238"/>
<path d="M335.09 364.23C335.09 364.23 335.09 364.04 335.09 363.68C335.09 363.32 335.09 362.78 335.09 362.05C335.09 360.59 335.09 358.39 335.09 355.37L335.16 355.44C311.49 355.55 233.08 355.63 140.16 355.63L140.42 355.37V364.23L140.16 363.97L278.3 364.07L319.92 364.15H331.22H334.17C334.83 364.15 335.17 364.15 335.17 364.15H334.17H331.25H320.01L278.46 364.23L140.12 364.34H139.86V354.96H140.13C233.06 354.96 311.47 355.04 335.13 355.15H335.21V355.22C335.21 358.22 335.21 360.47 335.16 361.95C335.16 362.66 335.16 363.19 335.16 363.56C335.16 363.93 335.09 364.23 335.09 364.23Z" fill="#263238"/>
<path d="M180.07 346.46C180.07 346.61 171.5 346.72 160.93 346.72C150.36 346.72 141.79 346.61 141.79 346.46C141.79 346.31 150.36 346.2 160.93 346.2C171.5 346.2 180.07 346.32 180.07 346.46Z" fill="#263238"/>
<path d="M335.09 262.64C335.09 262.64 335.09 262.46 335.09 262.1C335.09 261.74 335.09 261.2 335.09 260.47C335.09 259.01 335.09 256.81 335.09 253.79L335.16 253.86C311.49 253.97 233.08 254.05 140.16 254.05L140.42 253.79V262.64L140.16 262.38L278.3 262.49L319.92 262.57H331.22H334.17H335.17C335.17 262.57 334.85 262.57 334.17 262.57H331.25H320.01L278.46 262.65L140.12 262.75H139.86V253.38H140.13C233.06 253.38 311.47 253.46 335.13 253.57H335.21V253.64C335.21 256.64 335.21 258.89 335.16 260.36C335.16 261.08 335.16 261.61 335.16 261.98C335.16 262.35 335.09 262.64 335.09 262.64Z" fill="#263238"/>
<path d="M178.35 244.88C178.35 245.03 169.78 245.14 159.21 245.14C148.64 245.14 140.07 245.03 140.07 244.88C140.07 244.73 148.64 244.62 159.21 244.62C169.78 244.62 178.35 244.74 178.35 244.88Z" fill="#263238"/>
<path d="M223 296.5C223 296.5 223 296.29 223 295.91C223 295.53 223 294.91 223 294.2C223 292.69 223 290.49 222.94 287.64L223.05 287.75C208.64 287.84 176.9 287.9 140.11 287.9C140.23 287.79 139.85 288.16 140.37 287.64V296.47L140.11 296.21L198.97 296.32L216.58 296.4H221.36H222.61H223.05H222.64H221.43H216.71L199.15 296.48L140.15 296.59H139.89V287.5L140.15 287.24C176.94 287.24 208.68 287.3 223.09 287.39H223.2V287.5C223.2 290.38 223.15 292.6 223.13 294.12C223.13 294.85 223.13 295.41 223.13 295.81C223.13 296.21 223 296.5 223 296.5Z" fill="#263238"/>
<path d="M178.35 278.74C178.35 278.88 169.78 279 159.21 279C148.64 279 140.07 278.88 140.07 278.74C140.07 278.6 148.64 278.48 159.21 278.48C169.78 278.48 178.35 278.59 178.35 278.74Z" fill="#263238"/>
<path d="M153.87 328.69C153.854 328.47 153.854 328.25 153.87 328.03C153.87 327.55 153.87 326.95 153.82 326.23C153.82 324.62 153.75 322.45 153.71 319.84L153.91 320.04L140.11 320.1C140.05 320.1 140.6 319.6 140.37 319.84V322.15C140.37 322.92 140.37 323.67 140.37 324.41C140.37 325.89 140.37 327.32 140.37 328.68L140.13 328.44C144.13 328.44 147.55 328.51 150 328.56L152.87 328.63C153.224 328.627 153.578 328.644 153.93 328.68C153.599 328.731 153.264 328.751 152.93 328.74L150.11 328.8C147.68 328.85 144.2 328.9 140.11 328.92H139.87V328.68C139.87 327.32 139.87 325.89 139.87 324.41V319.84L140.13 319.58L153.93 319.63H154.14V319.84C154.14 322.59 154.07 324.84 154.03 326.36C154.03 327.06 154.03 327.64 153.98 328.11C153.969 328.307 153.932 328.502 153.87 328.69Z" fill="#263238"/>
<path d="M172.1 328.69C172.084 328.47 172.084 328.25 172.1 328.03C172.1 327.55 172.08 326.95 172.04 326.23C172.04 324.62 171.98 322.45 171.93 319.84L172.14 320.04L158.34 320.1C158.28 320.1 158.83 319.6 158.6 319.84V321C158.6 321.39 158.6 321.77 158.6 322.15V324.41C158.6 325.89 158.6 327.32 158.6 328.68L158.36 328.44C162.36 328.44 165.78 328.51 168.22 328.56L171.09 328.63C171.447 328.627 171.804 328.644 172.16 328.68C171.829 328.73 171.494 328.75 171.16 328.74L168.34 328.8C165.91 328.85 162.43 328.9 158.34 328.92H158.1V328.68C158.1 327.32 158.1 325.89 158.1 324.41V319.84C157.86 320.07 158.41 319.52 158.36 319.58L172.16 319.63H172.37V319.84C172.37 322.59 172.3 324.84 172.26 326.36C172.26 327.06 172.26 327.64 172.26 328.11C172.233 328.31 172.179 328.505 172.1 328.69Z" fill="#263238"/>
<path d="M190.33 328.69C190.294 328.472 190.277 328.251 190.28 328.03C190.28 327.55 190.28 326.95 190.23 326.23C190.23 324.62 190.17 322.45 190.12 319.84L190.33 320.04L176.52 320.1L176.78 319.84V324.41C176.78 325.89 176.78 327.32 176.78 328.68L176.54 328.44C180.54 328.44 183.97 328.51 186.41 328.56L189.28 328.63C189.637 328.628 189.994 328.644 190.35 328.68C190.019 328.73 189.684 328.75 189.35 328.74L186.54 328.8C184.11 328.85 180.62 328.9 176.54 328.92H176.3V328.68C176.3 327.32 176.3 325.89 176.3 324.41C176.3 323.67 176.3 322.92 176.3 322.15V319.84L176.56 319.58L190.37 319.63H190.58V319.84C190.58 322.59 190.51 324.84 190.48 326.36C190.48 327.06 190.48 327.64 190.42 328.11C190.411 328.306 190.38 328.5 190.33 328.69Z" fill="#263238"/>
<path d="M208.55 328.69C208.55 328.69 208.55 328.45 208.55 328.03C208.55 327.61 208.55 326.95 208.55 326.23C208.55 324.62 208.48 322.45 208.44 319.84L208.64 320.04L194.84 320.1C194.78 320.1 195.33 319.6 195.1 319.84V322.15C195.1 322.92 195.1 323.67 195.1 324.41C195.1 325.89 195.1 327.32 195.1 328.68L194.86 328.44C198.86 328.44 202.28 328.51 204.73 328.56L207.6 328.63C207.954 328.627 208.308 328.643 208.66 328.68C208.329 328.731 207.994 328.751 207.66 328.74L204.84 328.8C202.42 328.85 198.93 328.9 194.84 328.92H194.6V328.68C194.6 327.32 194.6 325.89 194.6 324.41V319.84L194.86 319.58L208.66 319.63H208.87V319.84C208.87 322.59 208.8 324.84 208.76 326.36C208.76 327.06 208.76 327.64 208.71 328.11C208.683 328.31 208.629 328.505 208.55 328.69Z" fill="#263238"/>
<path d="M226.78 328.69C226.764 328.47 226.764 328.25 226.78 328.03C226.78 327.55 226.78 326.95 226.72 326.23C226.72 324.62 226.66 322.45 226.62 319.84L226.82 320.04L213.02 320.1C212.96 320.1 213.51 319.6 213.28 319.84V322.15C213.28 322.92 213.28 323.67 213.28 324.41C213.28 325.89 213.28 327.32 213.28 328.68L213.04 328.44C217.04 328.44 220.46 328.51 222.9 328.56L225.77 328.63C226.127 328.627 226.485 328.644 226.84 328.68C226.509 328.73 226.174 328.75 225.84 328.74L223.02 328.8C220.59 328.85 217.11 328.9 213.02 328.92H212.78V328.68C212.78 327.32 212.78 325.89 212.78 324.41V319.84L213.04 319.58L226.84 319.63H227V319.84C227 322.59 226.93 324.84 226.89 326.36C226.89 327.06 226.89 327.64 226.89 328.11C226.879 328.307 226.842 328.502 226.78 328.69Z" fill="#263238"/>
<path d="M245 328.69C244.98 328.47 244.98 328.25 245 328.03C245 327.55 245 326.95 244.95 326.23C244.95 324.62 244.89 322.45 244.84 319.84L245.05 320.04L231.24 320.1L231.5 319.84V324.41C231.5 325.89 231.5 327.32 231.5 328.68L231.26 328.44C235.26 328.44 238.69 328.51 241.13 328.56L244 328.63C244.357 328.627 244.715 328.644 245.07 328.68C244.739 328.73 244.404 328.75 244.07 328.74L241.26 328.8C238.83 328.85 235.34 328.9 231.26 328.92H231V328.68C231 327.32 231 325.89 231 324.41C231 323.67 231 322.92 231 322.15V319.84L231.26 319.58L245.07 319.63H245.28V319.84C245.28 322.59 245.21 324.84 245.18 326.36C245.18 327.06 245.18 327.64 245.12 328.11C245.101 328.307 245.061 328.501 245 328.69Z" fill="#263238"/>
<path d="M263.24 328.69C263.204 328.472 263.187 328.251 263.19 328.03C263.19 327.55 263.19 326.95 263.14 326.23C263.14 324.62 263.07 322.45 263.03 319.84L263.24 320.04L249.43 320.1C249.37 320.1 249.92 319.6 249.69 319.84V324.41C249.69 325.89 249.69 327.32 249.69 328.68L249.45 328.44C253.45 328.44 256.87 328.51 259.32 328.56L262.19 328.63C262.547 328.628 262.904 328.644 263.26 328.68C262.929 328.729 262.594 328.749 262.26 328.74L259.45 328.8C257.02 328.85 253.53 328.9 249.45 328.92H249.21V328.68C249.21 327.32 249.21 325.89 249.21 324.41C249.21 323.67 249.21 322.92 249.21 322.15V319.84L249.47 319.58L263.28 319.63H263.48V319.84C263.48 322.59 263.41 324.84 263.37 326.36C263.37 327.06 263.37 327.64 263.32 328.11C263.314 328.306 263.287 328.5 263.24 328.69Z" fill="#263238"/>
<path d="M281.46 328.69C281.444 328.47 281.444 328.25 281.46 328.03C281.46 327.55 281.46 326.95 281.41 326.23C281.41 324.62 281.34 322.45 281.3 319.84L281.5 320.04L267.7 320.1C267.64 320.1 268.19 319.6 267.96 319.84V322.15C267.96 322.92 267.96 323.67 267.96 324.41C267.96 325.89 267.96 327.32 267.96 328.68L267.72 328.44C271.72 328.44 275.14 328.51 277.59 328.56L280.46 328.63C280.814 328.627 281.168 328.644 281.52 328.68C281.189 328.73 280.854 328.75 280.52 328.74L277.7 328.8C275.27 328.85 271.79 328.9 267.7 328.92H267.46V328.68C267.46 327.32 267.46 325.89 267.46 324.41V319.84C267.22 320.07 267.77 319.52 267.72 319.58L281.52 319.63H281.73V319.84C281.73 322.59 281.66 324.84 281.62 326.36C281.62 327.06 281.62 327.64 281.57 328.11C281.559 328.307 281.522 328.502 281.46 328.69Z" fill="#263238"/>
<path d="M299.69 328.69C299.66 328.471 299.643 328.251 299.64 328.03C299.64 327.55 299.64 326.95 299.59 326.23C299.59 324.62 299.53 322.45 299.48 319.84L299.69 320.04L285.89 320.1C285.83 320.1 286.38 319.6 286.14 319.84V324.41C286.14 325.89 286.14 327.32 286.14 328.68L285.9 328.44C289.9 328.44 293.33 328.51 295.77 328.56L298.64 328.63C298.997 328.627 299.355 328.644 299.71 328.68C299.379 328.73 299.044 328.75 298.71 328.74L295.89 328.8C293.46 328.85 289.97 328.9 285.89 328.92H285.66V328.68C285.66 327.32 285.66 325.89 285.66 324.41V322.15C285.66 321.77 285.66 321.39 285.66 321V319.84C285.43 320.07 285.98 319.52 285.93 319.58L299.73 319.63H299.94V319.84C299.94 322.59 299.86 324.84 299.83 326.36C299.83 327.06 299.83 327.64 299.77 328.11C299.764 328.306 299.737 328.5 299.69 328.69Z" fill="#263238"/>
<path d="M317.92 328.69C317.884 328.472 317.867 328.251 317.87 328.03C317.87 327.55 317.87 326.95 317.82 326.23C317.82 324.62 317.76 322.45 317.71 319.84L317.92 320.04L304.11 320.1C304.05 320.1 304.6 319.6 304.37 319.84V324.41C304.37 325.89 304.37 327.32 304.37 328.68L304.13 328.44C308.13 328.44 311.55 328.51 314 328.56L316.87 328.63C317.227 328.628 317.584 328.644 317.94 328.68C317.609 328.73 317.274 328.75 316.94 328.74L314.13 328.8C311.7 328.85 308.21 328.9 304.13 328.92H303.89V328.68C303.89 327.32 303.89 325.89 303.89 324.41C303.89 323.67 303.89 322.92 303.89 322.15V319.84L304.15 319.58L317.96 319.63H318.16V319.84C318.16 322.59 318.09 324.84 318.05 326.36C318.05 327.06 318.05 327.64 318 328.11C317.994 328.306 317.967 328.5 317.92 328.69Z" fill="#263238"/>
<path d="M336.14 328.69C336.124 328.47 336.124 328.25 336.14 328.03C336.14 327.55 336.14 326.95 336.09 326.23C336.09 324.62 336.02 322.45 335.98 319.84L336.18 320.04L322.38 320.1C322.32 320.1 322.87 319.6 322.64 319.84V322.15C322.64 322.92 322.64 323.67 322.64 324.41C322.64 325.89 322.64 327.32 322.64 328.68L322.4 328.44C326.4 328.44 329.82 328.51 332.27 328.56L335.14 328.63C335.494 328.627 335.848 328.644 336.2 328.68C335.869 328.731 335.534 328.751 335.2 328.74L332.38 328.8C329.95 328.85 326.47 328.9 322.38 328.92H322.14V328.68C322.14 327.32 322.14 325.89 322.14 324.41V319.84L322.4 319.58L336.2 319.63H336.41V319.84C336.41 322.59 336.34 324.84 336.3 326.36C336.3 327.06 336.3 327.64 336.25 328.11C336.239 328.307 336.202 328.502 336.14 328.69Z" fill="#263238"/>
<path d="M180.07 310.93C180.07 311.08 171.5 311.19 160.93 311.19C150.36 311.19 141.79 311.08 141.79 310.93C141.79 310.78 150.36 310.67 160.93 310.67C171.5 310.67 180.07 310.79 180.07 310.93Z" fill="#263238"/>
<path d="M333.71 296.5C333.71 296.5 333.71 296.29 333.71 295.91C333.71 295.53 333.71 294.91 333.71 294.2C333.71 292.69 333.71 290.49 333.65 287.64L333.76 287.75C319.35 287.84 287.62 287.9 250.83 287.9L251.09 287.64V296.47L250.83 296.21L309.69 296.32L327.3 296.4H332.09H333.34H333.77H333.37H332.15H327.43L309.88 296.48L250.88 296.59H250.63V296.33C250.63 294.92 250.63 293.46 250.63 291.98V287.5L250.9 287.24C287.69 287.24 319.42 287.3 333.83 287.39H333.94V287.5C333.94 290.38 333.89 292.6 333.88 294.12C333.88 294.85 333.88 295.41 333.88 295.81C333.88 296.21 333.71 296.5 333.71 296.5Z" fill="#263238"/>
<path d="M290.78 278.74C290.78 278.88 282.21 279 271.64 279C261.07 279 252.5 278.88 252.5 278.74C252.5 278.6 261.07 278.48 271.64 278.48C282.21 278.48 290.78 278.59 290.78 278.74Z" fill="#263238"/>
<path d="M272.65 410.33H198.65C195.293 410.325 192.076 408.987 189.704 406.612C187.332 404.236 186 401.017 186 397.66C186.003 394.307 187.335 391.091 189.704 388.718C192.073 386.345 195.287 385.008 198.64 385H272.64C276 385 279.223 386.335 281.599 388.711C283.975 391.087 285.31 394.31 285.31 397.67C285.307 401.027 283.973 404.245 281.599 406.619C279.225 408.993 276.007 410.327 272.65 410.33Z" fill="#F21365"/>
<path d="M241.757 164.74H239.257V175.94H241.757V164.74Z" fill="white"/>
<path d="M234.907 169.09V171.59H246.107V169.09H234.907Z" fill="white"/>
<path d="M249.817 170.37C249.817 170.37 249.817 170.32 249.817 170.22V169.77V169.45C249.805 169.319 249.785 169.188 249.757 169.06C249.723 168.722 249.659 168.387 249.567 168.06C249.119 166.348 248.195 164.799 246.904 163.59C245.612 162.381 244.004 161.563 242.267 161.23C240.195 160.863 238.06 161.194 236.197 162.17C235.802 162.385 235.425 162.629 235.067 162.9C234.714 163.174 234.379 163.471 234.067 163.79C233.742 164.128 233.438 164.485 233.157 164.86C232.584 165.635 232.139 166.495 231.837 167.41C231.21 169.303 231.21 171.347 231.837 173.24C232.134 174.156 232.58 175.018 233.157 175.79C233.436 176.167 233.74 176.524 234.067 176.86C234.377 177.181 234.711 177.479 235.067 177.75C235.425 178.021 235.802 178.265 236.197 178.48C236.585 178.689 236.989 178.867 237.407 179.01C239.429 179.748 241.646 179.759 243.675 179.04C245.705 178.321 247.42 176.917 248.527 175.07C248.979 174.3 249.316 173.468 249.527 172.6C249.618 172.273 249.682 171.938 249.717 171.6C249.745 171.471 249.765 171.341 249.777 171.21V170.88V170.44C249.777 170.34 249.777 170.29 249.777 170.29V170.44C249.777 170.55 249.777 170.7 249.777 170.88V171.21C249.777 171.33 249.777 171.46 249.727 171.61C249.69 171.947 249.63 172.281 249.547 172.61C249.341 173.492 249.004 174.338 248.547 175.12C247.871 176.269 246.957 177.26 245.867 178.028C244.777 178.795 243.536 179.321 242.227 179.57C240.555 179.887 238.829 179.753 237.227 179.18C236.807 179.023 236.396 178.843 235.997 178.64C235.596 178.416 235.209 178.169 234.837 177.9C234.464 177.616 234.107 177.312 233.767 176.99C233.436 176.648 233.128 176.283 232.847 175.9C232.255 175.115 231.798 174.236 231.497 173.3C230.834 171.355 230.834 169.245 231.497 167.3C231.798 166.364 232.255 165.485 232.847 164.7C233.129 164.317 233.436 163.953 233.767 163.61C234.102 163.282 234.459 162.978 234.837 162.7C235.563 162.153 236.369 161.721 237.227 161.42C238.708 160.879 240.301 160.722 241.859 160.964C243.417 161.205 244.889 161.837 246.137 162.8C247.093 163.531 247.898 164.441 248.507 165.48C248.964 166.261 249.301 167.108 249.507 167.99C249.59 168.319 249.65 168.653 249.687 168.99C249.687 169.13 249.687 169.26 249.737 169.38V169.71C249.737 169.9 249.737 170.05 249.737 170.16L249.817 170.37Z" fill="white"/>
<path d="M225.77 399.79H222.37L221.72 401.36H220L223.26 394.03H224.94L228.21 401.36H226.43L225.77 399.79ZM225.24 398.5L224.08 395.7L222.92 398.5H225.24Z" fill="white"/>
<path d="M228.4 397.69C228.431 396.891 228.7 396.119 229.173 395.474C229.647 394.83 230.303 394.342 231.057 394.074C231.81 393.806 232.627 393.77 233.401 393.97C234.175 394.171 234.872 394.599 235.4 395.2L234.31 396.2C234.088 395.928 233.807 395.709 233.488 395.56C233.17 395.411 232.822 395.336 232.47 395.34C231.875 395.379 231.316 395.643 230.908 396.078C230.5 396.514 230.273 397.088 230.273 397.685C230.273 398.282 230.5 398.856 230.908 399.292C231.316 399.727 231.875 399.991 232.47 400.03C232.823 400.034 233.172 399.958 233.491 399.808C233.809 399.657 234.09 399.435 234.31 399.16L235.4 400.16C234.872 400.76 234.175 401.189 233.401 401.389C232.627 401.59 231.81 401.554 231.057 401.286C230.303 401.018 229.647 400.53 229.173 399.886C228.7 399.241 228.431 398.469 228.4 397.67V397.69Z" fill="white"/>
<path d="M235.91 397.69C235.908 397.174 236.011 396.663 236.214 396.189C236.417 395.715 236.716 395.287 237.091 394.933C237.465 394.579 237.909 394.305 238.394 394.129C238.879 393.953 239.395 393.879 239.91 393.91C240.474 393.89 241.036 393.995 241.555 394.218C242.073 394.441 242.536 394.777 242.91 395.2L241.82 396.2C241.598 395.928 241.317 395.709 240.998 395.56C240.68 395.411 240.332 395.336 239.98 395.34C239.659 395.319 239.337 395.364 239.035 395.472C238.732 395.581 238.455 395.75 238.22 395.97C237.985 396.19 237.798 396.455 237.671 396.75C237.543 397.045 237.477 397.363 237.477 397.685C237.477 398.006 237.543 398.325 237.671 398.62C237.798 398.915 237.985 399.18 238.22 399.4C238.455 399.62 238.732 399.789 239.035 399.897C239.337 400.006 239.659 400.051 239.98 400.03C240.333 400.034 240.682 399.958 241 399.808C241.319 399.657 241.6 399.435 241.82 399.16L242.91 400.16C242.382 400.76 241.685 401.189 240.911 401.389C240.137 401.59 239.32 401.554 238.566 401.286C237.813 401.018 237.157 400.53 236.683 399.886C236.21 399.241 235.94 398.469 235.91 397.67V397.69Z" fill="white"/>
<path d="M249.72 400V401.36H244V394H249.54V395.36H245.69V397H249.09V398.32H245.69V400H249.72Z" fill="white"/>
<path d="M257.42 396.69C257.42 398.32 256.2 399.34 254.24 399.34H252.76V401.34H251.07V394H254.24C256.2 394 257.42 395.05 257.42 396.69ZM255.7 396.69C255.7 395.88 255.18 395.41 254.14 395.41H252.76V398H254.14C255.18 398 255.7 397.49 255.7 396.69Z" fill="white"/>
<path d="M259.94 395.41H257.6V394H264V395.38H261.66V401.33H259.96L259.94 395.41Z" fill="white"/>
<path d="M203.23 397.84L204.49 396.58L206.92 398.74L211.69 394.15L212.86 395.41L206.74 401.17L203.23 397.84Z" fill="white"/>
<path d="M465.31 469.71C465.31 469.85 367.56 469.97 247.01 469.97C126.46 469.97 28.6899 469.85 28.6899 469.71C28.6899 469.57 126.42 469.45 247.01 469.45C367.6 469.45 465.31 469.56 465.31 469.71Z" fill="#263238"/>
<path d="M423.28 444.41L422.28 461.09C422.28 461.09 438.89 467.74 439 470.84L406.56 470L407.1 444L423.28 444.41Z" fill="#F21365"/>
<g opacity="0.6">
<path d="M412.27 459.43C411.957 459.519 411.687 459.72 411.512 459.994C411.337 460.269 411.268 460.598 411.32 460.92C411.385 461.244 411.575 461.529 411.847 461.716C412.12 461.903 412.454 461.976 412.78 461.92C413.113 461.828 413.4 461.615 413.585 461.323C413.77 461.031 413.84 460.68 413.78 460.34C413.668 460.018 413.436 459.752 413.132 459.597C412.828 459.442 412.476 459.411 412.15 459.51" fill="white"/>
</g>
<g opacity="0.6">
<path d="M406.56 470L406.72 467.38L437.72 469.15C437.72 469.15 439.15 469.82 438.96 470.83L406.56 470Z" fill="white"/>
</g>
<path d="M422.79 460.94C422.79 461.1 421.99 461.15 421.19 461.64C420.39 462.13 419.97 462.78 419.83 462.72C419.69 462.66 419.94 461.72 420.91 461.17C421.88 460.62 422.83 460.8 422.79 460.94Z" fill="#263238"/>
<path d="M426.15 462.43C426.15 462.59 425.49 462.84 424.94 463.5C424.39 464.16 424.21 464.86 424.05 464.85C423.89 464.84 423.82 463.94 424.52 463.13C425.22 462.32 426.15 462.28 426.15 462.43Z" fill="#263238"/>
<path d="M428 466.55C427.85 466.55 427.65 465.79 428.08 464.93C428.51 464.07 429.26 463.75 429.32 463.88C429.38 464.01 428.92 464.47 428.58 465.17C428.24 465.87 428.14 466.54 428 466.55Z" fill="#263238"/>
<path d="M422.6 457.11C422.53 457.26 421.81 457.02 420.91 457.06C420.01 457.1 419.31 457.36 419.23 457.22C419.15 457.08 419.84 456.54 420.9 456.51C421.96 456.48 422.68 457 422.6 457.11Z" fill="#263238"/>
<g opacity="0.3">
<path d="M423.08 447.71L422.9 450.69L406.97 450.14L407.03 446.7L423.08 447.71Z" fill="black"/>
</g>
<path d="M422.74 453.74C422.206 453.875 421.645 453.858 421.12 453.69C420.538 453.578 419.973 453.39 419.44 453.13C419.12 452.982 418.812 452.808 418.52 452.61C418.339 452.508 418.177 452.376 418.04 452.22C417.938 452.105 417.877 451.959 417.866 451.805C417.855 451.652 417.895 451.499 417.98 451.37C418.065 451.263 418.173 451.177 418.296 451.118C418.419 451.059 418.554 451.029 418.69 451.03C418.894 451.033 419.096 451.066 419.29 451.13C419.634 451.221 419.969 451.345 420.29 451.5C420.831 451.756 421.33 452.093 421.77 452.5C422.5 453.22 422.77 453.81 422.69 453.84C422.61 453.87 422.26 453.39 421.51 452.84C421.075 452.49 420.594 452.2 420.08 451.98C419.782 451.851 419.475 451.748 419.16 451.67C418.82 451.57 418.53 451.56 418.43 451.67C418.33 451.78 418.43 451.75 418.43 451.86C418.539 451.967 418.66 452.061 418.79 452.14C419.059 452.331 419.339 452.505 419.63 452.66C420.13 452.92 420.652 453.134 421.19 453.3C421.716 453.412 422.234 453.559 422.74 453.74Z" fill="#263238"/>
<path d="M422.53 454C422.243 453.525 422.108 452.974 422.14 452.42C422.131 451.819 422.222 451.221 422.41 450.65C422.52 450.302 422.667 449.966 422.85 449.65C422.942 449.437 423.088 449.251 423.274 449.113C423.46 448.974 423.679 448.887 423.91 448.86C424.054 448.864 424.194 448.911 424.311 448.995C424.429 449.079 424.519 449.195 424.57 449.33C424.649 449.522 424.7 449.724 424.72 449.93C424.775 450.291 424.775 450.659 424.72 451.02C424.613 451.626 424.359 452.196 423.98 452.68C423.33 453.5 422.66 453.68 422.65 453.62C422.64 453.56 423.16 453.25 423.65 452.45C423.944 451.993 424.135 451.478 424.21 450.94C424.255 450.628 424.255 450.312 424.21 450C424.21 449.66 424.05 449.38 423.92 449.41C423.79 449.44 423.47 449.65 423.33 449.93C423.166 450.204 423.025 450.492 422.91 450.79C422.715 451.311 422.594 451.856 422.55 452.41C422.47 453.35 422.62 453.94 422.53 454Z" fill="#263238"/>
<path d="M430 342.8L404.23 351.08C404.54 351.31 409.01 380.27 409.01 380.27L405.29 457.15L425.74 457.4L434.89 376.76L430 342.8Z" fill="#263238"/>
<path d="M394 444.35L393.48 461.05C393.48 461.05 410.28 467.19 410.48 470.29L378.05 470.44L377.79 444.38L394 444.35Z" fill="#F21365"/>
<g opacity="0.6">
<path d="M383.48 459.7C383.17 459.797 382.906 460.004 382.739 460.283C382.571 460.561 382.511 460.891 382.57 461.21C382.655 461.526 382.858 461.798 383.137 461.969C383.416 462.14 383.75 462.198 384.07 462.13C384.399 462.026 384.678 461.804 384.853 461.507C385.028 461.21 385.088 460.858 385.02 460.52C384.898 460.2 384.657 459.94 384.348 459.795C384.038 459.649 383.684 459.63 383.36 459.74" fill="white"/>
</g>
<g opacity="0.6">
<path d="M378.1 470.44L378.18 467.82L409.24 468.65C409.24 468.65 410.68 469.27 410.53 470.29L378.1 470.44Z" fill="white"/>
</g>
<path d="M394 460.89C394 461.04 393.2 461.12 392.43 461.63C391.66 462.14 391.24 462.81 391.09 462.75C390.94 462.69 391.18 461.75 392.09 461.17C393 460.59 394.07 460.74 394 460.89Z" fill="#263238"/>
<path d="M397.45 462.28C397.45 462.43 396.8 462.7 396.27 463.37C395.74 464.04 395.58 464.76 395.42 464.75C395.26 464.74 395.16 463.85 395.84 463.03C396.52 462.21 397.44 462.13 397.45 462.28Z" fill="#263238"/>
<path d="M399.4 466.34C399.26 466.34 399.03 465.58 399.4 464.71C399.77 463.84 400.55 463.5 400.61 463.63C400.67 463.76 400.23 464.22 399.91 464.94C399.59 465.66 399.56 466.32 399.4 466.34Z" fill="#263238"/>
<path d="M393.74 457.07C393.67 457.21 392.94 457 392.05 457.07C391.16 457.14 390.46 457.42 390.37 457.29C390.28 457.16 390.96 456.58 392.01 456.52C393.06 456.46 393.81 456.94 393.74 457.07Z" fill="#263238"/>
<g opacity="0.3">
<path d="M393.93 447.66L393.84 450.63L377.9 450.57L377.86 447.13L393.93 447.66Z" fill="black"/>
</g>
<path d="M393.78 453.69C393.251 453.842 392.689 453.842 392.16 453.69C391.571 453.592 390.997 453.42 390.45 453.18C390.131 453.034 389.821 452.871 389.52 452.69C389.338 452.59 389.173 452.461 389.03 452.31C388.924 452.199 388.859 452.056 388.844 451.904C388.829 451.751 388.867 451.599 388.95 451.47C389.029 451.36 389.133 451.269 389.252 451.205C389.372 451.141 389.504 451.105 389.64 451.1C389.846 451.098 390.051 451.125 390.25 451.18C390.593 451.267 390.928 451.384 391.25 451.53C391.803 451.781 392.313 452.118 392.76 452.53C393.51 453.22 393.76 453.81 393.76 453.84C393.76 453.87 393.32 453.4 392.55 452.84C392.102 452.511 391.615 452.239 391.1 452.03C390.794 451.913 390.48 451.819 390.16 451.75C389.82 451.66 389.53 451.66 389.44 451.81C389.35 451.96 389.44 451.9 389.44 452C389.545 452.109 389.666 452.2 389.8 452.27C390.074 452.454 390.362 452.618 390.66 452.76C391.162 453.01 391.688 453.208 392.23 453.35C392.753 453.434 393.27 453.547 393.78 453.69Z" fill="#263238"/>
<path d="M393.57 453.92C393.264 453.459 393.114 452.912 393.14 452.36C393.109 451.759 393.18 451.157 393.35 450.58C393.452 450.233 393.589 449.898 393.76 449.58C393.845 449.37 393.981 449.184 394.155 449.039C394.33 448.894 394.538 448.795 394.76 448.75C394.904 448.754 395.044 448.798 395.164 448.878C395.285 448.957 395.38 449.069 395.44 449.2C395.525 449.391 395.582 449.593 395.61 449.8C395.665 450.161 395.665 450.529 395.61 450.89C395.524 451.499 395.286 452.076 394.92 452.57C394.29 453.42 393.63 453.57 393.62 453.57C393.983 453.199 394.317 452.801 394.62 452.38C394.9 451.914 395.071 451.391 395.12 450.85C395.169 450.539 395.169 450.221 395.12 449.91C395.07 449.57 394.94 449.29 394.81 449.32C394.68 449.35 394.37 449.58 394.24 449.86C394.085 450.142 393.955 450.436 393.85 450.74C393.666 451.261 393.562 451.808 393.54 452.36C393.49 453.31 393.66 453.9 393.57 453.92Z" fill="#263238"/>
<path d="M373.29 346.9C373.29 352.72 375.59 460.64 375.59 460.64L395 458.91L399 392.59L401.09 386.81L403.52 351.08L373.29 346.9Z" fill="#263238"/>
<path d="M414.42 207C414.68 207.35 429.84 231.41 429.84 231.41L446.89 213.57L455.61 226.16C455.61 226.16 437.38 251.89 434.7 252.82C432.02 253.75 423.4 252.29 423.4 252.29L411.4 236.4L414.42 207Z" fill="#EBEBEB"/>
<path d="M430 236.91C429.706 236.018 429.597 235.075 429.68 234.14C429.585 233.209 429.649 232.269 429.87 231.36C430.165 232.252 430.277 233.194 430.2 234.13C430.288 235.061 430.22 236.001 430 236.91Z" fill="#263238"/>
<path d="M375.87 189L373.25 195.47C373.25 195.47 359.8 206.82 358.58 208.57C357.36 210.32 368.18 266.9 368.18 266.9C368.18 266.9 367.48 350.03 368.18 350.03C368.88 350.03 378.18 353.03 397.18 351.6C416.18 350.17 419.71 348.28 419.71 348.28L413.78 274.76L404.69 225.33L389.1 205.25L375.87 189Z" fill="#EBEBEB"/>
<path d="M406.51 217.07C406.51 217.07 404.51 207.48 404.68 207.18C404.85 206.88 400.2 195.55 400.2 195.55C400.2 195.55 398.64 190.36 398.64 190.38C398.64 190.4 377.45 186.8 377.45 186.8L376.45 190L404.71 225.71L407.61 241.04L410.61 236.86L406.51 217.07Z" fill="#F21365"/>
<path d="M425.42 289.25L420.82 233.94L417.05 212.35C416.507 209.273 415.354 206.336 413.66 203.71L402.66 197.34C401.535 195.995 400.483 194.589 399.51 193.13L404.72 206.44L406.55 217.07L407.68 241.46L413.68 274.2L419.56 346.2L432.34 343.7L425.42 289.25Z" fill="#EBEBEB"/>
<path d="M408.1 224.81L410.57 206.66L402.62 197.34L399.47 193.13L404.36 207.18L408.1 224.81Z" fill="#EBEBEB"/>
<path d="M395.54 258.68L414.75 231.36L448.18 241.47L422.89 274.19L391.49 263.98L395.54 258.68Z" fill="#F21365"/>
<path d="M438.42 240.21C438.42 240.374 438.371 240.535 438.28 240.671C438.189 240.808 438.059 240.914 437.908 240.977C437.756 241.04 437.589 241.056 437.428 241.024C437.267 240.992 437.119 240.913 437.003 240.797C436.887 240.681 436.808 240.533 436.776 240.372C436.744 240.211 436.76 240.044 436.823 239.892C436.886 239.741 436.992 239.611 437.129 239.52C437.265 239.429 437.426 239.38 437.59 239.38C437.81 239.38 438.021 239.467 438.177 239.623C438.333 239.779 438.42 239.99 438.42 240.21Z" fill="#263238"/>
<path d="M425.05 236.48C425.05 236.645 425.001 236.805 424.909 236.942C424.818 237.079 424.688 237.185 424.535 237.248C424.383 237.31 424.216 237.326 424.054 237.293C423.893 237.26 423.745 237.18 423.63 237.063C423.514 236.946 423.436 236.797 423.405 236.636C423.374 236.474 423.392 236.307 423.456 236.155C423.52 236.004 423.628 235.875 423.766 235.785C423.904 235.695 424.065 235.648 424.23 235.65C424.448 235.653 424.657 235.741 424.81 235.897C424.964 236.052 425.05 236.262 425.05 236.48Z" fill="#263238"/>
<path d="M409.38 213.79C409.33 213.79 409.74 215.57 410.31 217.79C410.613 219.109 410.987 220.411 411.43 221.69C411.48 221.69 411.06 219.91 410.5 217.74C409.94 215.57 409.43 213.78 409.38 213.79Z" fill="#263238"/>
<path d="M415.76 226.05C415.878 226.833 415.774 227.633 415.46 228.36C415.301 228.731 415.064 229.064 414.766 229.337C414.467 229.609 414.114 229.815 413.73 229.94C413.209 230.106 412.654 230.133 412.119 230.019C411.584 229.905 411.088 229.654 410.68 229.29C409.309 227.693 408.623 225.62 408.77 223.52C408.819 222.866 409.05 222.238 409.437 221.708C409.824 221.178 410.352 220.766 410.96 220.52C411.649 220.336 412.381 220.389 413.036 220.673C413.691 220.956 414.232 221.452 414.57 222.08" fill="#E0E0E0"/>
<path d="M414.57 222.1C414.44 221.831 414.268 221.584 414.06 221.37C413.819 221.119 413.542 220.903 413.24 220.73C412.832 220.501 412.377 220.371 411.91 220.35C411.638 220.342 411.366 220.369 411.1 220.43C410.807 220.493 410.526 220.604 410.27 220.76C409.73 221.134 409.305 221.649 409.04 222.25C408.74 222.904 408.599 223.621 408.63 224.34C408.664 225.102 408.802 225.855 409.04 226.58C409.34 227.727 409.957 228.767 410.82 229.58C411.249 229.914 411.76 230.124 412.3 230.19C412.79 230.249 413.288 230.205 413.76 230.06C414.108 229.972 414.428 229.796 414.69 229.55C414.929 229.34 415.138 229.098 415.31 228.83C415.566 228.39 415.736 227.904 415.81 227.4C415.857 227.068 415.857 226.732 415.81 226.4C415.82 226.317 415.82 226.233 415.81 226.15C415.812 226.12 415.812 226.09 415.81 226.06C415.844 226.49 415.827 226.923 415.76 227.35C415.676 227.839 415.5 228.307 415.24 228.73C415.07 228.985 414.865 229.214 414.63 229.41C414.383 229.633 414.084 229.792 413.76 229.87C413.295 230.014 412.802 230.045 412.322 229.962C411.842 229.879 411.389 229.683 411 229.39C410.179 228.607 409.588 227.615 409.29 226.52C408.769 225.168 408.769 223.672 409.29 222.32C409.537 221.751 409.934 221.26 410.44 220.9C410.676 220.75 410.937 220.642 411.21 220.58C411.904 220.401 412.639 220.49 413.27 220.83C413.573 220.986 413.849 221.189 414.09 221.43C414.266 221.641 414.427 221.865 414.57 222.1Z" fill="#263238"/>
<path d="M416.65 225.9C416.768 226.68 416.664 227.477 416.35 228.2C416.191 228.573 415.955 228.907 415.656 229.182C415.358 229.456 415.005 229.663 414.62 229.79C414.099 229.956 413.544 229.983 413.009 229.869C412.474 229.755 411.978 229.504 411.57 229.14C410.199 227.543 409.513 225.47 409.66 223.37C409.706 222.716 409.935 222.088 410.32 221.557C410.705 221.027 411.232 220.616 411.84 220.37C412.53 220.184 413.262 220.236 413.919 220.517C414.575 220.798 415.118 221.293 415.46 221.92" fill="#E0E0E0"/>
<path d="M415.46 221.94C415.331 221.673 415.159 221.43 414.95 221.22C414.711 220.966 414.435 220.75 414.13 220.58C413.719 220.35 413.26 220.22 412.79 220.2C412.518 220.188 412.245 220.215 411.98 220.28C411.689 220.34 411.411 220.452 411.16 220.61C410.616 220.979 410.189 221.496 409.93 222.1C409.629 222.751 409.488 223.464 409.52 224.18C409.554 224.945 409.692 225.702 409.93 226.43C410.233 227.576 410.849 228.615 411.71 229.43C412.139 229.764 412.651 229.975 413.19 230.04C413.68 230.099 414.178 230.055 414.65 229.91C415.002 229.824 415.326 229.649 415.59 229.4C415.829 229.19 416.038 228.948 416.21 228.68C416.466 228.24 416.636 227.754 416.71 227.25C416.757 226.918 416.757 226.582 416.71 226.25C416.715 226.167 416.715 226.083 416.71 226C416.712 225.97 416.712 225.94 416.71 225.91C416.743 226.341 416.723 226.774 416.65 227.2C416.566 227.689 416.39 228.157 416.13 228.58C415.967 228.837 415.764 229.066 415.53 229.26C415.283 229.483 414.984 229.642 414.66 229.72C414.196 229.865 413.703 229.899 413.224 229.817C412.744 229.735 412.29 229.541 411.9 229.25C411.079 228.467 410.488 227.475 410.19 226.38C409.669 225.029 409.669 223.532 410.19 222.18C410.434 221.609 410.832 221.117 411.34 220.76C411.575 220.608 411.836 220.5 412.11 220.44C412.362 220.376 412.621 220.346 412.88 220.35C413.328 220.357 413.767 220.474 414.16 220.69C414.464 220.844 414.741 221.046 414.98 221.29C415.152 221.497 415.312 221.715 415.46 221.94Z" fill="#263238"/>
<path d="M413.92 221.9C414.319 221.746 414.757 221.725 415.169 221.838C415.581 221.952 415.946 222.194 416.21 222.53C416.721 223.227 416.946 224.092 416.84 224.95C416.824 225.389 416.711 225.819 416.51 226.21C416.406 226.406 416.264 226.58 416.093 226.721C415.921 226.861 415.723 226.967 415.51 227.03C415.197 227.094 414.872 227.083 414.564 226.996C414.256 226.909 413.974 226.749 413.74 226.53C413.346 226.196 413.028 225.781 412.809 225.314C412.59 224.846 412.474 224.336 412.47 223.82C412.44 223.472 412.52 223.123 412.7 222.823C412.879 222.523 413.149 222.288 413.47 222.15" fill="#E0E0E0"/>
<path d="M413.47 222.15C413.42 222.141 413.37 222.141 413.32 222.15C413.179 222.198 413.052 222.281 412.95 222.39C412.767 222.592 412.628 222.829 412.54 223.087C412.452 223.345 412.418 223.618 412.44 223.89C412.452 224.699 412.742 225.479 413.26 226.1C413.554 226.478 413.935 226.779 414.37 226.98C414.607 227.1 414.869 227.163 415.135 227.163C415.401 227.163 415.663 227.1 415.9 226.98C416.345 226.694 416.666 226.251 416.8 225.74C416.924 225.284 416.971 224.811 416.94 224.34C416.935 223.936 416.848 223.537 416.684 223.168C416.521 222.799 416.285 222.466 415.99 222.19C415.567 221.835 415.021 221.659 414.47 221.7C414.326 221.719 414.185 221.756 414.05 221.81C413.96 221.86 413.92 221.88 413.92 221.89C414.102 221.834 414.29 221.797 414.48 221.78C415 221.763 415.506 221.95 415.89 222.3C416.165 222.566 416.383 222.885 416.533 223.237C416.682 223.589 416.759 223.967 416.76 224.35C416.778 224.802 416.728 225.254 416.61 225.69C416.482 226.148 416.195 226.545 415.8 226.81C415.59 226.913 415.359 226.967 415.125 226.967C414.891 226.967 414.66 226.913 414.45 226.81C414.042 226.621 413.682 226.34 413.4 225.99C412.899 225.402 412.61 224.662 412.58 223.89C412.531 223.372 412.685 222.856 413.01 222.45C413.145 222.324 413.301 222.223 413.47 222.15Z" fill="#263238"/>
<path d="M413.64 228.49C413.64 228.49 413.64 228.36 413.77 228.18C413.884 227.941 414.065 227.74 414.29 227.6C414.528 227.468 414.78 227.361 415.04 227.28C415.24 227.21 415.37 227.16 415.37 227.13C415.251 227.103 415.128 227.103 415.01 227.13C414.721 227.176 414.443 227.274 414.19 227.42C413.926 227.579 413.727 227.827 413.63 228.12C413.57 228.35 413.61 228.5 413.64 228.49Z" fill="#263238"/>
<path d="M411.62 222C411.62 222 411.71 222.12 411.92 222.21C412.197 222.324 412.497 222.372 412.795 222.349C413.094 222.327 413.383 222.234 413.64 222.08C413.83 221.95 413.92 221.84 413.9 221.82C413.543 221.978 413.166 222.089 412.78 222.15C412.389 222.141 412 222.091 411.62 222Z" fill="#263238"/>
<path d="M396.17 235.44C395.17 235.73 394.03 234.99 393.05 235.37C392.873 235.444 392.712 235.553 392.576 235.689C392.441 235.825 392.334 235.987 392.261 236.165C392.188 236.343 392.151 236.533 392.152 236.725C392.152 236.918 392.191 237.108 392.265 237.285C392.339 237.462 392.448 237.623 392.584 237.759C392.72 237.894 392.882 238.001 393.06 238.074C393.238 238.147 393.428 238.184 393.62 238.183C393.813 238.183 394.003 238.144 394.18 238.07C395.18 237.61 395.41 236.17 396.37 235.6" fill="#263238"/>
<path d="M388 239.05C388.313 238.947 388.617 238.82 388.91 238.67L388.75 238.34C388.259 238.63 387.713 238.816 387.147 238.885C386.581 238.953 386.006 238.904 385.46 238.74C384.722 238.423 384.053 237.963 383.494 237.386C382.934 236.81 382.494 236.128 382.2 235.38V235.31C381.84 234.59 376.89 219.85 375.98 217.04C375.519 215.879 375.51 214.587 375.954 213.419C376.398 212.251 377.264 211.292 378.38 210.73C378.52 210.65 381.83 208.93 385.24 213.12C388.81 217.51 395.05 226.12 395.63 227.24L395.9 227.72C396.69 229.06 398.34 231.86 396.9 234.26C395.29 236.92 393.27 236.74 393.19 236.74V237.1C393.28 237.1 395.51 237.32 397.25 234.44C398.82 231.87 397.09 228.94 396.25 227.53L395.99 227.07C395.41 225.99 389.14 217.29 385.57 212.89C382 208.49 378.29 210.39 378.25 210.41C377.075 211.029 376.167 212.055 375.694 213.295C375.22 214.536 375.216 215.906 375.68 217.15C376.43 219.46 381.53 234.71 381.91 235.47V235.54C382.221 236.333 382.687 237.055 383.281 237.665C383.875 238.275 384.586 238.759 385.37 239.09C386.228 239.36 387.15 239.346 388 239.05Z" fill="#263238"/>
<path d="M376.65 219.92C376.607 219.266 376.661 218.609 376.81 217.97C376.989 217.279 377.291 216.625 377.7 216.04C378.198 215.326 378.838 214.724 379.58 214.27C380.957 213.47 382.569 213.173 384.14 213.43C384.79 213.549 385.422 213.751 386.02 214.03C386.02 214.03 386.02 214.03 385.9 213.94C385.79 213.871 385.677 213.808 385.56 213.75C385.117 213.544 384.65 213.393 384.17 213.3C383.452 213.157 382.715 213.137 381.99 213.24C381.103 213.359 380.25 213.655 379.48 214.11C378.711 214.576 378.053 215.204 377.55 215.95C377.14 216.558 376.845 217.236 376.68 217.95C376.565 218.428 376.524 218.92 376.56 219.41C376.56 219.58 376.56 219.71 376.61 219.8C376.66 219.89 376.64 219.93 376.65 219.92Z" fill="#263238"/>
<path d="M373.25 195.48L389.83 216.02L404.68 225.34L375.87 189.01L373.25 195.48Z" fill="#EBEBEB"/>
<path d="M358.58 208.58C358.58 208.58 355.1 214.06 354.58 219.66C354.36 221.85 359.82 262.98 360.43 264.83C361.04 266.68 368.3 271.3 370.43 272.23C372.56 273.16 398.95 281.94 409.74 281.79L412.05 261.44L384.3 256.81C384.3 256.81 381.06 253.73 379.37 253.11L377.05 230.45L373.66 212.26C373.66 212.26 364 206.28 358.58 208.58Z" fill="#EBEBEB"/>
<path d="M420.94 233.21C420.8 233.21 419.31 227.21 417.61 219.77C415.91 212.33 414.61 206.25 414.78 206.22C414.95 206.19 416.41 212.22 418.12 219.65C419.83 227.08 421.08 233.17 420.94 233.21Z" fill="#263238"/>
<path d="M375.69 228.44C375.69 228.44 375.69 228.58 375.77 228.86C375.85 229.14 375.9 229.58 375.99 230.12C376.17 231.25 376.43 232.88 376.76 234.99C377.41 239.25 378.36 245.41 379.54 253.08L379.43 252.95C380.361 253.372 381.229 253.921 382.01 254.58C382.83 255.23 383.63 255.93 384.43 256.67L384.33 256.62L412.09 261.2H412.31V261.42C411.59 267.78 410.82 274.64 410.01 281.77V282.01H409.78C404.619 281.766 399.5 280.968 394.51 279.63C388.11 278.1 381.95 276.27 376.04 274.38C374.57 273.9 373.11 273.38 371.67 272.91C370.23 272.414 368.856 271.742 367.58 270.91C366.31 270.13 365.07 269.31 363.89 268.45C362.681 267.622 361.58 266.648 360.61 265.55C360.363 265.267 360.2 264.921 360.14 264.55C360.05 264.18 359.99 263.84 359.94 263.49C359.82 262.79 359.71 262.1 359.6 261.42C359.4 260.04 359.2 258.69 359 257.35L357.92 249.58C357.24 244.58 356.63 239.88 356.1 235.58C355.57 231.28 355.1 227.44 354.77 224.03C354.69 223.18 354.59 222.36 354.54 221.56C354.44 220.793 354.44 220.017 354.54 219.25C354.757 217.925 355.071 216.619 355.48 215.34C356.036 213.57 356.756 211.856 357.63 210.22C357.92 209.66 358.18 209.22 358.35 208.97C358.432 208.829 358.525 208.695 358.63 208.57L358.39 209C358.24 209.28 358 209.7 357.72 210.27C356.893 211.919 356.207 213.635 355.67 215.4C355.28 216.674 354.983 217.974 354.78 219.29C354.691 220.037 354.691 220.793 354.78 221.54C354.84 222.33 354.94 223.15 355.03 224C355.4 227.4 355.89 231.26 356.44 235.53C356.99 239.8 357.64 244.53 358.32 249.53C358.673 252.037 359.04 254.627 359.42 257.3C359.62 258.63 359.83 259.98 360.04 261.35L360.37 263.42C360.43 263.76 360.49 264.11 360.57 264.42C360.612 264.742 360.747 265.045 360.96 265.29C361.905 266.348 362.976 267.285 364.15 268.08C365.32 268.94 366.55 269.75 367.81 270.52C369.057 271.347 370.4 272.019 371.81 272.52C373.24 273.02 374.7 273.52 376.17 273.98C382.07 275.86 388.17 277.68 394.6 279.21C399.549 280.533 404.624 281.327 409.74 281.58L409.49 281.81C410.31 274.68 411.09 267.81 411.82 261.46L412.02 261.72L384.27 257H384.21C383.42 256.26 382.63 255.56 381.82 254.92C381.073 254.28 380.242 253.745 379.35 253.33L379.25 253.28V253.19C378.14 245.5 377.25 239.33 376.63 235.06C376.34 232.96 376.11 231.32 375.95 230.19C375.88 229.65 375.83 229.19 375.79 228.92C375.745 228.763 375.712 228.602 375.69 228.44Z" fill="#263238"/>
<path d="M374.05 222.33C373.557 221.543 373.129 220.717 372.77 219.86C371.844 217.843 370.683 215.943 369.31 214.2C367.911 212.491 366.081 211.186 364.01 210.42C363.131 210.165 362.236 209.971 361.33 209.84C361.572 209.762 361.827 209.735 362.08 209.76C362.775 209.765 363.465 209.87 364.13 210.07C366.32 210.762 368.257 212.084 369.7 213.87C371.117 215.636 372.265 217.6 373.11 219.7C373.514 220.542 373.829 221.423 374.05 222.33Z" fill="#263238"/>
<path d="M369.61 256.89C370.771 255.512 372.262 254.452 373.945 253.808C375.628 253.165 377.446 252.959 379.23 253.21C377.496 253.386 375.786 253.748 374.13 254.29C372.538 254.999 371.023 255.87 369.61 256.89Z" fill="#263238"/>
<path d="M372.76 260.11C373.236 258.462 374.115 256.959 375.318 255.737C376.521 254.514 378.01 253.612 379.65 253.11C378.223 253.978 376.883 254.983 375.65 256.11C374.567 257.352 373.599 258.691 372.76 260.11Z" fill="#263238"/>
<path d="M404.68 225.34C404.278 225.17 403.893 224.963 403.53 224.72L400.41 222.85L389.7 216.23L384.7 210.08C380.12 204.4 376.01 199.26 373.16 195.65L373.09 195.56V195.47L375.09 190.76L375.65 189.5C375.704 189.346 375.781 189.2 375.88 189.07C375.853 189.232 375.806 189.39 375.74 189.54C375.62 189.89 375.46 190.31 375.27 190.83C374.81 192.03 374.19 193.63 373.42 195.6V195.42C376.34 198.97 380.5 204.07 385.09 209.76L390.09 215.92L390.03 215.87L400.65 222.64L403.65 224.64C404.011 224.846 404.355 225.08 404.68 225.34Z" fill="#263238"/>
<path d="M407.1 229.2C407.098 228.751 407.135 228.303 407.21 227.86C407.33 226.92 407.48 225.7 407.67 224.22C408.08 221.14 408.67 216.85 409.39 212.02V212.18C409.08 211.6 408.74 210.98 408.39 210.35C405.85 205.63 403.57 201.35 401.95 198.22L400.06 194.52C399.81 194.075 399.596 193.61 399.42 193.13C399.73 193.534 400.001 193.966 400.23 194.42L402.28 198.05C403.98 201.12 406.28 205.38 408.84 210.05C409.18 210.68 409.51 211.3 409.84 211.88V211.96V212.05C409.11 216.87 408.44 221.15 407.94 224.22C407.69 225.69 407.48 226.9 407.32 227.84C407.298 228.3 407.225 228.756 407.1 229.2Z" fill="#263238"/>
<path d="M376.69 211.39L377.54 210.87L376.68 211.39C375.26 209.155 374.013 206.815 372.95 204.39L372.77 203.96C371.77 201.51 370.61 198.74 371.1 196.05V196C371.348 194.82 371.994 193.761 372.93 193L373.2 192.76H374V194.31L374.18 194.52L374 194.69V194.76C373.544 195.204 373.234 195.776 373.11 196.4V196.45C372.75 198.55 373.77 201.02 374.67 203.2L374.85 203.63C375.875 205.947 377.079 208.18 378.45 210.31L376.69 211.39Z" fill="#263238"/>
<path d="M413.26 272.34C413.334 272.584 413.381 272.836 413.4 273.09C413.47 273.63 413.57 274.35 413.69 275.25C413.94 277.13 414.27 279.85 414.69 283.25C415.46 289.98 416.41 299.25 417.28 309.59C418.15 319.93 418.77 329.23 419.15 335.99C419.33 339.37 419.47 342.11 419.54 343.99C419.54 344.9 419.59 345.62 419.61 346.17C419.634 346.423 419.634 346.677 419.61 346.93C419.555 346.684 419.525 346.432 419.52 346.18C419.52 345.63 419.42 344.91 419.35 344C419.21 342.06 419.02 339.34 418.79 336C418.32 329.25 417.64 319.92 416.79 309.62C415.94 299.32 415 290 414.28 283.25C413.95 279.92 413.69 277.25 413.49 275.25C413.41 274.35 413.35 273.63 413.3 273.08C413.272 272.834 413.258 272.587 413.26 272.34Z" fill="#263238"/>
<path d="M400.43 295.8C400.43 295.8 400.21 296.06 399.76 296.45C399.31 296.84 398.63 297.4 397.76 298.06C395.562 299.812 393.243 301.406 390.82 302.83C389.472 303.605 388.076 304.293 386.64 304.89C385.466 305.363 384.26 305.75 383.03 306.05C382.199 306.259 381.353 306.403 380.5 306.48C380.189 306.532 379.871 306.532 379.56 306.48C379.56 306.39 380.88 306.24 382.93 305.66C384.133 305.322 385.312 304.904 386.46 304.41C387.863 303.798 389.231 303.11 390.56 302.35C393.38 300.72 395.79 298.98 397.56 297.74C398.471 297.028 399.43 296.38 400.43 295.8Z" fill="#263238"/>
<path d="M402 299.7C401.86 299.991 401.678 300.261 401.46 300.5C400.931 301.207 400.353 301.875 399.73 302.5C395.625 306.713 390.308 309.541 384.52 310.59C383.655 310.758 382.78 310.864 381.9 310.91C381.568 310.952 381.232 310.952 380.9 310.91C380.9 310.81 382.26 310.71 384.42 310.23C387.231 309.601 389.942 308.592 392.48 307.23C395.027 305.884 397.381 304.203 399.48 302.23C401 300.72 401.89 299.64 402 299.7Z" fill="#263238"/>
<path d="M380.59 311.27C380.242 310.398 380.059 309.469 380.05 308.53C379.871 307.609 379.871 306.661 380.05 305.74C380.581 307.532 380.771 309.408 380.61 311.27H380.59Z" fill="#263238"/>
<path d="M378.19 178.74C377.822 178.728 377.465 178.612 377.16 178.405C376.855 178.198 376.616 177.908 376.47 177.57C376.149 176.862 375.953 176.105 375.89 175.33C375.42 171.93 374.96 168.52 374.49 165.11C374.009 162.232 373.771 159.318 373.78 156.4C374.014 153.572 374.893 150.835 376.35 148.4C377.89 145.4 384.13 140.21 394.48 143.14" fill="#263238"/>
<path d="M377.66 166.48C377.52 166.48 372.13 164.96 372.4 170.48C372.67 176 378.12 174.55 378.12 174.39C378.12 174.23 377.66 166.48 377.66 166.48Z" fill="#FFBE9D"/>
<path d="M376.34 172.35C376.34 172.35 376.25 172.42 376.09 172.5C375.869 172.607 375.616 172.628 375.38 172.56C375.016 172.351 374.713 172.049 374.502 171.686C374.292 171.323 374.18 170.91 374.18 170.49C374.141 170.024 374.21 169.555 374.38 169.12C374.421 168.946 374.505 168.784 374.624 168.65C374.742 168.516 374.892 168.413 375.06 168.35C375.168 168.315 375.285 168.319 375.391 168.361C375.497 168.403 375.585 168.48 375.64 168.58C375.72 168.73 375.69 168.84 375.72 168.85C375.75 168.86 375.83 168.75 375.72 168.53C375.706 168.462 375.678 168.398 375.639 168.341C375.599 168.285 375.549 168.237 375.49 168.2C375.336 168.092 375.146 168.049 374.96 168.08C374.73 168.131 374.517 168.241 374.342 168.399C374.167 168.556 374.035 168.757 373.96 168.98C373.757 169.467 373.671 169.994 373.71 170.52C373.708 171.009 373.85 171.488 374.118 171.898C374.387 172.307 374.77 172.627 375.22 172.82C375.37 172.853 375.526 172.853 375.676 172.82C375.826 172.787 375.967 172.722 376.09 172.63C376.34 172.48 376.36 172.36 376.34 172.35Z" fill="#EB996E"/>
<path d="M405.79 176.66C405.79 172.79 405.07 164.83 404.36 157.66C403.989 153.927 402.226 150.471 399.423 147.979C396.619 145.487 392.98 144.141 389.23 144.21H388.46C380.13 144.85 376.03 152.27 376.9 160.58L378.07 187.06L397.92 197.95L397.85 186.08C397.85 186.08 405.84 184.67 405.79 176.66Z" fill="#FFBE9D"/>
<path d="M397.86 186.06C394.166 186.201 390.513 185.236 387.37 183.29C387.37 183.29 389.89 189.09 397.87 188.23L397.86 186.06Z" fill="#EB996E"/>
<path d="M401.71 162.88C401.718 163.177 401.61 163.466 401.408 163.685C401.206 163.903 400.927 164.035 400.63 164.05C400.485 164.065 400.339 164.051 400.2 164.009C400.06 163.966 399.931 163.897 399.819 163.803C399.707 163.71 399.615 163.595 399.548 163.466C399.481 163.337 399.441 163.195 399.43 163.05C399.422 162.753 399.53 162.464 399.732 162.245C399.934 162.027 400.213 161.896 400.51 161.88C400.655 161.866 400.8 161.881 400.939 161.924C401.078 161.967 401.207 162.037 401.318 162.13C401.43 162.223 401.522 162.337 401.589 162.466C401.656 162.595 401.697 162.735 401.71 162.88Z" fill="#263238"/>
<path d="M402.82 161.16C402.68 161.31 401.82 160.68 400.57 160.71C399.32 160.74 398.45 161.37 398.31 161.22C398.17 161.07 398.39 160.88 398.77 160.59C399.299 160.213 399.931 160.007 400.58 160C401.219 159.985 401.846 160.174 402.37 160.54C402.76 160.82 402.89 161.09 402.82 161.16Z" fill="#263238"/>
<path d="M389.74 163.13C389.751 163.428 389.643 163.718 389.441 163.938C389.239 164.157 388.958 164.287 388.66 164.3C388.516 164.315 388.37 164.301 388.231 164.259C388.092 164.216 387.964 164.146 387.853 164.053C387.742 163.959 387.65 163.845 387.585 163.715C387.519 163.586 387.48 163.445 387.47 163.3C387.459 163.002 387.567 162.712 387.769 162.492C387.971 162.273 388.252 162.143 388.55 162.13C388.694 162.115 388.84 162.129 388.979 162.171C389.118 162.214 389.246 162.284 389.357 162.377C389.468 162.471 389.56 162.585 389.625 162.715C389.691 162.844 389.73 162.985 389.74 163.13Z" fill="#263238"/>
<path d="M390.55 161C390.43 161.16 389.49 160.64 388.27 160.8C387.05 160.96 386.27 161.68 386.08 161.55C385.89 161.42 386.08 161.21 386.47 160.87C386.95 160.434 387.555 160.161 388.2 160.09C388.834 160.004 389.479 160.123 390.04 160.43C390.45 160.71 390.61 161 390.55 161Z" fill="#263238"/>
<path d="M395.25 171.08C395.897 170.862 396.569 170.728 397.25 170.68C397.57 170.68 397.86 170.58 397.91 170.36C397.93 170.034 397.85 169.709 397.68 169.43L396.68 167.06C395.78 165.046 395.044 162.963 394.48 160.83C395.531 162.759 396.433 164.765 397.18 166.83C397.5 167.67 397.81 168.46 398.11 169.22C398.317 169.598 398.385 170.037 398.3 170.46C398.256 170.571 398.188 170.67 398.099 170.75C398.011 170.83 397.905 170.888 397.79 170.92C397.619 170.975 397.44 171.005 397.26 171.01C396.596 171.118 395.92 171.141 395.25 171.08Z" fill="#263238"/>
<path d="M391.64 172C391.84 172 391.87 173.32 393.03 174.24C394.19 175.16 395.61 175 395.63 175.19C395.65 175.38 395.31 175.45 394.71 175.48C393.929 175.506 393.164 175.254 392.55 174.77C391.96 174.303 391.573 173.626 391.47 172.88C391.41 172.32 391.55 172 391.64 172Z" fill="#263238"/>
<path d="M390.62 155.73C390.51 156.06 389.27 155.93 387.83 156.13C386.39 156.33 385.23 156.74 385.03 156.45C384.83 156.16 385.14 155.99 385.61 155.65C386.227 155.237 386.933 154.976 387.67 154.89C388.406 154.787 389.157 154.859 389.86 155.1C390.4 155.31 390.67 155.57 390.62 155.73Z" fill="#263238"/>
<path d="M402.19 158C401.98 158.28 401.13 158 400.11 158C399.09 158 398.23 158.22 398.02 157.94C397.81 157.66 398.02 157.51 398.44 157.24C398.934 156.904 399.522 156.732 400.12 156.75C400.718 156.749 401.302 156.934 401.79 157.28C402.16 157.6 402.28 157.89 402.19 158Z" fill="#263238"/>
<path d="M395.09 143.33C392.26 142.21 389.39 142.8 386.38 143.24C384.062 143.533 381.856 144.41 379.97 145.79C378.513 146.935 377.333 148.394 376.516 150.057C375.698 151.721 375.266 153.547 375.25 155.4C375.09 159.04 375.491 162.682 376.44 166.2L376.74 166.13C376.469 167.035 376.452 167.996 376.69 168.91C376.827 169.361 377.135 169.74 377.548 169.966C377.961 170.192 378.447 170.248 378.9 170.12C379.9 169.68 379.9 168.29 379.9 167.19C379.64 163.488 379.64 159.772 379.9 156.07C380.06 153.31 381.63 149.92 383.79 148.61C387.72 145.99 392.84 148.13 394.57 148.43C397.24 146.15 399.73 147.93 401.35 149.91C400.67 146.93 397.92 144.44 395.09 143.33Z" fill="#263238"/>
<path d="M394.48 148.43C396.24 148.43 397.64 147.25 399.59 147.57C400.77 147.76 401.96 149.69 402.99 152.09C403.581 151.734 404.052 151.209 404.344 150.584C404.635 149.958 404.733 149.26 404.626 148.579C404.519 147.897 404.21 147.263 403.741 146.757C403.271 146.252 402.662 145.897 401.99 145.74C402.457 146.042 402.995 146.218 403.55 146.25C403.826 146.253 404.093 146.152 404.297 145.967C404.501 145.781 404.627 145.525 404.65 145.25C404.618 145.047 404.544 144.853 404.432 144.681C404.32 144.508 404.173 144.362 404 144.25C402.225 142.844 399.964 142.2 397.715 142.458C395.465 142.717 393.41 143.858 392 145.63" fill="#263238"/>
<path d="M403.52 145.12C403.52 145.19 402.95 144.82 402 144.52C400.781 144.128 399.469 144.128 398.25 144.52C397.034 144.958 395.985 145.766 395.25 146.83C394.69 147.65 394.52 148.26 394.43 148.24C394.441 147.668 394.618 147.112 394.94 146.64C395.621 145.419 396.726 144.491 398.046 144.032C399.366 143.573 400.809 143.615 402.1 144.15C403.11 144.58 403.56 145.08 403.52 145.12Z" fill="#455A64"/>
<path d="M403.15 151.15C403.235 150.533 403.235 149.907 403.15 149.29C403.006 148.643 402.704 148.041 402.27 147.54C401.733 146.952 401.039 146.528 400.27 146.32C399.545 146.15 398.793 146.127 398.06 146.254C397.326 146.382 396.625 146.656 396 147.06C395 147.68 394.52 148.24 394.46 148.18C394.4 148.12 394.81 147.49 395.8 146.76C396.385 146.332 397.042 146.014 397.74 145.82C398.612 145.59 399.528 145.59 400.4 145.82C401.284 146.045 402.077 146.537 402.67 147.23C403.14 147.803 403.441 148.496 403.54 149.23C403.614 149.559 403.618 149.901 403.551 150.232C403.484 150.563 403.347 150.876 403.15 151.15Z" fill="#455A64"/>
<path d="M374.66 164.33C374.66 164.33 374.54 164.08 374.45 163.6C374.322 162.921 374.261 162.231 374.27 161.54C374.263 159.239 374.834 156.973 375.93 154.95C377.03 152.928 378.614 151.21 380.54 149.95C381.114 149.561 381.724 149.226 382.36 148.95C382.585 148.825 382.834 148.747 383.09 148.72C383.09 148.8 382.09 149.22 380.74 150.23C378.929 151.525 377.437 153.215 376.378 155.173C375.32 157.132 374.722 159.306 374.63 161.53C374.55 163.26 374.75 164.32 374.66 164.33Z" fill="#455A64"/>
<path d="M375.88 165.34C375.532 163.331 375.686 161.266 376.33 159.331C376.974 157.396 378.087 155.65 379.57 154.25C378.454 155.885 377.531 157.643 376.82 159.49C376.281 161.397 375.965 163.36 375.88 165.34Z" fill="#455A64"/>
<path d="M466.39 211.12C466.16 210.51 465 210.38 465 210.38L465.23 210.03C465.395 209.787 465.493 209.504 465.514 209.211C465.536 208.918 465.479 208.624 465.35 208.36L465.22 208.11C464.885 207.648 464.418 207.3 463.88 207.11C463.88 207.11 464.73 205.95 464.52 205.38C464.284 204.896 463.911 204.493 463.446 204.22C462.982 203.948 462.447 203.819 461.91 203.85C460.058 204.262 458.237 204.803 456.46 205.47C456.296 205.531 456.121 205.557 455.947 205.544C455.773 205.531 455.603 205.481 455.45 205.396C455.297 205.311 455.164 205.195 455.061 205.054C454.957 204.913 454.885 204.751 454.85 204.58C454.528 202.833 453.938 201.147 453.1 199.58C452.1 197.9 450.93 197.84 450.22 198C450.14 198.017 450.065 198.052 450 198.101C449.934 198.151 449.881 198.214 449.843 198.287C449.804 198.359 449.783 198.439 449.779 198.521C449.775 198.603 449.789 198.684 449.82 198.76C450.318 199.905 450.742 201.081 451.09 202.28C451.28 203.18 450.63 209.69 450.63 209.69L447.32 214.14L454.82 224.97L458.12 220.07L465.19 216.96C465.19 216.96 466.53 215.27 466.39 214.69C466.268 214.31 466.022 213.982 465.69 213.76L466.57 212.53C466.6 212.053 466.539 211.574 466.39 211.12Z" fill="#FFBE9D"/>
<path d="M464.51 207.29L464.37 207.38L463.93 207.63L462.32 208.53L459.92 209.83C459.46 210.07 459 210.35 458.47 210.57C458.201 210.708 457.903 210.78 457.6 210.78C457.298 210.78 456.999 210.708 456.73 210.57C456.465 210.394 456.273 210.127 456.19 209.82C456.12 209.527 456.12 209.222 456.19 208.93C456.33 208.389 456.651 207.913 457.1 207.58C457.488 207.275 457.899 207.001 458.33 206.76L459.42 206.11L461.01 205.17L461.45 204.93L461.6 204.85C461.6 204.85 461.6 204.85 461.46 204.96L461.04 205.23L459.48 206.23L458.4 206.9C457.982 207.142 457.581 207.413 457.2 207.71C456.785 208.032 456.486 208.482 456.35 208.99C456.273 209.253 456.278 209.534 456.364 209.794C456.45 210.055 456.612 210.283 456.83 210.45C457.068 210.595 457.342 210.668 457.62 210.66C457.895 210.647 458.166 210.586 458.42 210.48C458.93 210.27 459.42 209.99 459.85 209.76L462.27 208.48L463.91 207.64L464.36 207.41L464.51 207.29Z" fill="#EB996E"/>
<path d="M465.47 210.54C465.366 210.622 465.252 210.689 465.13 210.74C464.91 210.86 464.59 211.03 464.18 211.22C463.37 211.62 462.24 212.13 460.96 212.64C460.652 212.775 460.334 212.889 460.01 212.98C459.683 213.072 459.337 213.072 459.01 212.98C458.741 212.905 458.499 212.755 458.311 212.548C458.123 212.341 457.998 212.085 457.95 211.81C457.903 211.457 457.993 211.099 458.2 210.81C458.251 210.727 458.315 210.653 458.39 210.59L458.48 210.53C458.48 210.53 458.38 210.63 458.25 210.84C458.068 211.139 458 211.495 458.06 211.84C458.122 212.081 458.247 212.301 458.423 212.477C458.599 212.653 458.819 212.778 459.06 212.84C459.352 212.914 459.658 212.914 459.95 212.84C460.25 212.76 460.56 212.62 460.88 212.5C462.15 211.99 463.29 211.5 464.11 211.13L465.11 210.69C465.224 210.626 465.345 210.576 465.47 210.54Z" fill="#EB996E"/>
<path d="M465.84 213.62C465.738 213.681 465.626 213.725 465.51 213.75L464.57 214.06L461.45 215C461.14 215.08 460.85 215.18 460.54 215.23C460.244 215.296 459.935 215.275 459.65 215.17C459.518 215.12 459.398 215.042 459.298 214.942C459.198 214.842 459.12 214.722 459.07 214.59C458.995 214.359 458.995 214.111 459.07 213.88C459.193 213.559 459.422 213.291 459.72 213.12C459.82 213.05 459.932 212.999 460.05 212.97C459.957 213.041 459.86 213.108 459.76 213.17C459.497 213.355 459.298 213.617 459.19 213.92C459.122 214.124 459.122 214.345 459.19 214.55C459.234 214.662 459.303 214.762 459.391 214.843C459.48 214.924 459.585 214.985 459.7 215.02C459.965 215.096 460.245 215.096 460.51 215.02C460.79 215.02 461.09 214.87 461.39 214.79C462.61 214.43 463.72 214.11 464.52 213.9L465.52 213.64L465.84 213.62Z" fill="#EB996E"/>
<path d="M465.88 216.44C465.526 216.5 465.169 216.537 464.81 216.55L462.24 216.69H461.5C461.268 216.72 461.032 216.72 460.8 216.69C460.581 216.653 460.38 216.544 460.23 216.38C460.162 216.305 460.113 216.216 460.087 216.118C460.061 216.021 460.058 215.919 460.08 215.82C460.112 215.686 460.174 215.561 460.26 215.454C460.347 215.347 460.456 215.26 460.58 215.2C460.664 215.148 460.762 215.123 460.86 215.13C460.774 215.167 460.69 215.211 460.61 215.26C460.504 215.323 460.412 215.407 460.34 215.506C460.268 215.606 460.217 215.72 460.19 215.84C460.179 215.921 460.186 216.003 460.21 216.08C460.235 216.158 460.275 216.23 460.33 216.29C460.464 216.427 460.64 216.515 460.83 216.54C461.053 216.565 461.277 216.565 461.5 216.54H462.23C463.23 216.54 464.15 216.46 464.81 216.45C465.166 216.417 465.524 216.414 465.88 216.44Z" fill="#EB996E"/>
<path d="M459.1 214C458.517 213.785 457.914 213.628 457.3 213.53C456.679 213.494 456.056 213.521 455.44 213.61C456.038 213.385 456.681 213.302 457.316 213.37C457.952 213.438 458.563 213.654 459.1 214Z" fill="#EB996E"/>
<path d="M411.91 262.63L413.47 262.23C413.47 262.23 414.01 259.62 414.7 259.07C415.39 258.52 422.26 255.39 423.77 254.57C425.28 253.75 431.18 251.06 431.92 252.48C432.76 254.1 430.35 255.48 429.05 256.05C427.75 256.62 424.05 258.11 424.78 259C425.51 259.89 433.85 259.49 433.85 259.49L434.85 258.09C434.85 258.09 436.68 259.82 436.47 261.33C436.366 262.2 436.087 263.04 435.65 263.8H435.03C435.205 264.063 435.304 264.369 435.316 264.685C435.329 265.001 435.254 265.314 435.1 265.59C434.608 266.316 434.06 267.001 433.46 267.64C433.037 268.358 432.472 268.982 431.8 269.473C431.128 269.965 430.362 270.315 429.55 270.5C429.2 270.59 415.48 271.79 415.48 271.79L410.88 272.25L411.91 262.63Z" fill="#FFBE9D"/>
<path d="M136.84 58.7L100.42 45.28L64.36 58.52C59.75 60.75 55.72 62.08 55.72 66.52V88.39C55.6379 103.737 59.7455 118.815 67.6 132C75.3294 145.16 86.9106 155.631 100.78 162C115.52 157.09 126.52 144 133.25 132.79C141.098 119.61 145.205 104.54 145.13 89.2V69.54C145.13 63.27 141.89 60.21 136.84 58.7Z" fill="#F21365"/>
<g opacity="0.8">
<path d="M136.84 58.7L100.42 45.28L64.36 58.52C59.75 60.75 55.72 62.08 55.72 66.52V88.39C55.6379 103.737 59.7455 118.815 67.6 132C75.3294 145.16 86.9106 155.631 100.78 162C115.52 157.09 126.52 144 133.25 132.79C141.098 119.61 145.205 104.54 145.13 89.2V69.54C145.13 63.27 141.89 60.21 136.84 58.7Z" fill="white"/>
</g>
<path d="M129.64 67.5901L100.42 56.8301L71.49 67.4401C67.79 69.2301 64.55 70.3001 64.55 73.8301V91.4101C64.4848 103.728 67.7834 115.829 74.09 126.41C80.2813 136.989 89.5741 145.409 100.71 150.53C112.53 146.59 121.36 136.08 126.76 127.1C133.059 116.517 136.354 104.416 136.29 92.1001V76.2901C136.29 71.2601 133.69 68.8001 129.64 67.5901Z" fill="#F21365"/>
<path d="M122.54 97.79H105.36V80.6H95.49V97.79H78.3V107.66H95.49V124.84H105.36V107.66H122.54V97.79Z" fill="white"/>
<path d="M154.65 147.85C154.65 147.85 154.81 147.61 155.15 147.16L155.44 146.79C155.54 146.64 155.62 146.47 155.73 146.29C155.986 145.881 156.204 145.449 156.38 145C156.48 144.74 156.6 144.48 156.7 144.19C156.8 143.9 156.87 143.58 156.96 143.26C157.055 142.932 157.125 142.598 157.17 142.26C157.246 141.88 157.299 141.496 157.33 141.11C157.482 139.27 157.398 137.419 157.08 135.6C156.131 130.598 154.417 125.771 152 121.29C148.891 115.333 145.25 109.67 141.12 104.37C136.148 97.9229 130.728 91.8345 124.9 86.15C118.237 79.6087 111.123 73.5438 103.61 68C99.61 65.07 95.44 62.24 91.02 59.57C86.518 56.8242 81.8414 54.3757 77.02 52.24C72.0587 49.9666 66.8309 48.327 61.46 47.36C58.7194 46.8734 55.9208 46.806 53.16 47.16C51.7798 47.3617 50.4339 47.752 49.16 48.32C47.8786 48.8953 46.7329 49.734 45.7973 50.7816C44.8617 51.8292 44.1573 53.0621 43.73 54.4C43.313 55.7323 43.0775 57.1148 43.03 58.51C42.9945 61.2958 43.3823 64.0707 44.18 66.74C45.7495 71.9675 47.9702 76.9768 50.79 81.65C53.4675 86.1889 56.4336 90.5512 59.67 94.71C62.83 98.8 66.12 102.64 69.48 106.26C75.8645 113.09 82.7214 119.462 90 125.33C96.3288 130.462 103.012 135.14 110 139.33C115.719 142.828 121.744 145.8 128 148.21C132.713 150.095 137.688 151.245 142.75 151.62C144.595 151.732 146.447 151.604 148.26 151.24C148.639 151.17 149.013 151.077 149.38 150.96C149.723 150.876 150.057 150.763 150.38 150.62L151.28 150.26C151.55 150.13 151.8 149.98 152.04 149.85C152.47 149.63 152.876 149.365 153.25 149.06C153.42 148.94 153.58 148.83 153.71 148.72L154.05 148.39C154.46 148 154.68 147.81 154.68 147.81L154.08 148.41L153.74 148.75C153.61 148.86 153.45 148.97 153.28 149.1C152.886 149.444 152.457 149.746 152 150L151.24 150.42L150.34 150.79C150.017 150.931 149.682 151.045 149.34 151.13C148.969 151.249 148.591 151.349 148.21 151.43C146.391 151.8 144.533 151.938 142.68 151.84C137.6 151.483 132.605 150.346 127.87 148.47C121.581 146.074 115.523 143.112 109.77 139.62C102.784 135.427 96.1009 130.749 89.77 125.62C82.4819 119.745 75.6181 113.363 69.23 106.52C65.87 102.89 62.57 99.05 59.4 94.95C56.1491 90.7846 53.1728 86.4121 50.49 81.86C47.6548 77.1578 45.4207 72.1184 43.84 66.86C43.0358 64.1613 42.648 61.3557 42.69 58.54C42.7368 57.1112 42.9756 55.6952 43.4 54.33C43.8763 52.965 44.6019 51.7002 45.54 50.6C46.5193 49.5233 47.6932 48.6411 49 48C50.3042 47.4228 51.6797 47.0226 53.09 46.81C55.8844 46.4539 58.7168 46.5247 61.49 47.02C66.8872 47.9951 72.1413 49.6412 77.13 51.92C81.9505 54.0687 86.627 56.5272 91.13 59.28C95.56 61.96 99.76 64.8 103.74 67.73C111.28 73.3111 118.418 79.4162 125.1 86C130.924 91.7064 136.341 97.8148 141.31 104.28C145.442 109.603 149.077 115.293 152.17 121.28C154.565 125.771 156.251 130.604 157.17 135.61C157.482 137.439 157.56 139.301 157.4 141.15C157.4 141.56 157.28 141.94 157.23 142.3C157.18 142.655 157.106 143.005 157.01 143.35C156.91 143.67 156.82 143.99 156.74 144.28C156.66 144.57 156.51 144.84 156.41 145.09C156.226 145.542 156.001 145.977 155.74 146.39C155.63 146.57 155.54 146.74 155.45 146.88L155.15 147.25L154.65 147.85Z" fill="#F21365"/>
<path d="M174.78 99.25C174.78 99.25 174.78 98.96 174.7 98.4C174.7 98.26 174.7 98.1 174.7 97.93C174.7 97.76 174.62 97.57 174.58 97.37C174.497 96.8925 174.37 96.4239 174.2 95.97C174.11 95.72 174.02 95.44 173.9 95.15L173.48 94.29C173.326 93.9686 173.146 93.6608 172.94 93.37C172.749 93.0228 172.535 92.6887 172.3 92.37C171.194 90.8731 169.897 89.5282 168.44 88.37C164.413 85.2791 159.934 82.827 155.16 81.1C148.875 78.7233 142.389 76.9193 135.78 75.71C127.763 74.2401 119.653 73.3345 111.51 73C102.174 72.5439 92.8173 72.7477 83.51 73.61C78.59 74.08 73.58 74.76 68.51 75.71C63.326 76.6547 58.2086 77.934 53.19 79.54C47.9794 81.1528 42.9908 83.4103 38.34 86.26C35.9654 87.7165 33.8274 89.5274 32 91.63C31.1035 92.7043 30.3567 93.8951 29.78 95.17C29.2077 96.4523 28.912 97.8408 28.912 99.245C28.912 100.649 29.2077 102.038 29.78 103.32C30.3567 104.595 31.1035 105.786 32 106.86C33.8268 108.962 35.9609 110.776 38.33 112.24C42.9813 115.106 47.9736 117.377 53.19 119C58.2094 120.606 63.3266 121.888 68.51 122.84C73.59 123.84 78.6 124.46 83.51 124.93C92.8173 125.792 102.174 125.996 111.51 125.54C119.643 125.179 127.739 124.244 135.74 122.74C142.351 121.529 148.84 119.728 155.13 117.36C159.909 115.604 164.388 113.122 168.41 110C169.867 108.842 171.164 107.497 172.27 106C172.505 105.679 172.722 105.345 172.92 105C173.119 104.707 173.296 104.399 173.45 104.08L173.88 103.22C173.99 102.93 174.08 102.66 174.17 102.4C174.34 101.946 174.467 101.477 174.55 101C174.55 100.8 174.64 100.61 174.67 100.44C174.7 100.27 174.67 100.11 174.67 99.97C174.72 99.41 174.75 99.12 174.75 99.12C174.75 99.12 174.75 99.41 174.75 99.97V100.45C174.75 100.62 174.68 100.81 174.64 101.01C174.566 101.492 174.442 101.964 174.27 102.42C174.18 102.68 174.1 102.96 173.98 103.25C173.86 103.54 173.71 103.82 173.56 104.12C173.408 104.444 173.231 104.755 173.03 105.05C172.835 105.395 172.621 105.729 172.39 106.05C171.281 107.544 169.983 108.888 168.53 110.05C164.504 113.169 160.022 115.648 155.24 117.4C148.951 119.794 142.457 121.615 135.84 122.84C127.827 124.358 119.717 125.307 111.57 125.68C102.235 126.144 92.8781 125.951 83.57 125.1C78.65 124.64 73.62 123.96 68.57 123.01C63.3716 122.067 58.2406 120.784 53.21 119.17C47.9671 117.554 42.9479 115.286 38.27 112.42C35.8722 110.943 33.714 109.108 31.87 106.98C30.9549 105.88 30.1914 104.663 29.6 103.36C29.0438 102.024 28.7419 100.596 28.71 99.15C28.7416 97.7057 29.047 96.2805 29.61 94.95C30.1973 93.6451 30.9611 92.4271 31.88 91.33C33.6977 89.2521 35.8142 87.4558 38.16 86C42.8354 83.1357 47.8511 80.8681 53.09 79.25C58.1211 77.635 63.2519 76.3489 68.45 75.4C73.54 74.4 78.57 73.78 83.45 73.31C92.7581 72.4593 102.115 72.2655 111.45 72.73C119.594 73.1012 127.701 74.0536 135.71 75.58C142.358 76.7889 148.882 78.6032 155.2 81C159.981 82.7487 164.464 85.2245 168.49 88.34C169.943 89.5017 171.241 90.8462 172.35 92.34C172.581 92.6613 172.795 92.9952 172.99 93.34C173.187 93.638 173.364 93.9486 173.52 94.27L173.94 95.15C174.06 95.43 174.14 95.71 174.23 95.97C174.401 96.4263 174.525 96.8987 174.6 97.38C174.6 97.58 174.68 97.77 174.71 97.95V98.42C174.77 99 174.78 99.25 174.78 99.25Z" fill="#F21365"/>
<path d="M148.1 38.76L147.39 38.3L147 38C146.85 37.91 146.67 37.84 146.49 37.75C146.061 37.5241 145.612 37.3367 145.15 37.19L144.32 36.92L143.37 36.73C143.024 36.6555 142.673 36.6087 142.32 36.59C141.938 36.5424 141.555 36.5157 141.17 36.51C139.321 36.4859 137.476 36.6976 135.68 37.14C130.773 38.4171 126.092 40.4407 121.8 43.14C116.072 46.6451 110.674 50.6615 105.67 55.14C99.571 60.5742 93.8666 66.4357 88.6 72.68C82.5173 79.7756 76.9466 87.2946 71.93 95.18C69.29 99.35 66.75 103.73 64.39 108.32C61.9467 112.995 59.8122 117.826 58 122.78C56.0739 127.887 54.7973 133.215 54.2 138.64C53.9033 141.406 54.0281 144.201 54.57 146.93C54.8708 148.294 55.3517 149.613 56 150.85C56.6656 152.086 57.5823 153.17 58.6914 154.031C59.8004 154.892 61.0773 155.512 62.44 155.85C63.8014 156.176 65.2011 156.314 66.6 156.26C69.3772 156.108 72.1152 155.535 74.72 154.56C79.8267 152.629 84.6712 150.066 89.14 146.93C93.4902 143.953 97.6392 140.693 101.56 137.17C105.43 133.74 109.03 130.17 112.41 126.59C118.796 119.766 124.691 112.498 130.05 104.84C134.761 98.2 138.998 91.2361 142.73 84C145.825 78.0351 148.375 71.8032 150.35 65.38C151.9 60.547 152.703 55.5055 152.73 50.43C152.712 48.5817 152.456 46.7433 151.97 44.96C151.89 44.57 151.72 44.22 151.61 43.86C151.502 43.5171 151.368 43.1829 151.21 42.86C151.063 42.56 150.923 42.27 150.79 41.99C150.63 41.73 150.47 41.49 150.32 41.26C150.069 40.8454 149.778 40.4568 149.45 40.1C149.32 39.95 149.2 39.79 149.08 39.67L148.73 39.35L148.1 38.77C148.1 38.77 148.33 38.95 148.75 39.33L149.11 39.64C149.23 39.76 149.35 39.91 149.49 40.07C149.822 40.4248 150.12 40.8098 150.38 41.22C150.53 41.45 150.7 41.69 150.85 41.96C151 42.23 151.13 42.52 151.28 42.83C151.448 43.1498 151.585 43.4846 151.69 43.83C151.81 44.19 151.98 44.54 152.07 44.93C152.567 46.7221 152.833 48.5705 152.86 50.43C152.854 55.5204 152.065 60.5796 150.52 65.43C148.563 71.8714 146.023 78.1206 142.93 84.1C139.226 91.358 135.009 98.3424 130.31 105C124.958 112.682 119.063 119.971 112.67 126.81C109.29 130.42 105.67 133.98 101.81 137.42C97.8766 140.947 93.7178 144.214 89.36 147.2C84.8738 150.359 80.0049 152.936 74.87 154.87C72.2344 155.863 69.4623 156.446 66.65 156.6C65.221 156.65 63.7917 156.509 62.4 156.18C61.0056 155.796 59.6938 155.159 58.53 154.3C57.4089 153.382 56.4694 152.263 55.76 151C55.0922 149.739 54.5977 148.393 54.29 147C53.7385 144.239 53.6137 141.409 53.92 138.61C54.5183 133.158 55.7983 127.803 57.73 122.67C59.5416 117.707 61.6727 112.867 64.11 108.18C66.48 103.57 69.02 99.18 71.67 95.02C76.704 87.1275 82.2913 79.602 88.39 72.5C93.6769 66.289 99.3979 60.461 105.51 55.06C110.528 50.5731 115.948 46.5562 121.7 43.06C126.027 40.3447 130.75 38.3204 135.7 37.06C137.502 36.6182 139.355 36.4131 141.21 36.45C141.598 36.4586 141.985 36.4886 142.37 36.54C142.727 36.5627 143.081 36.6128 143.43 36.69L144.43 36.89C144.73 36.98 145 37.08 145.26 37.17C145.723 37.3198 146.171 37.5105 146.6 37.74C146.78 37.84 146.96 37.91 147.11 38L147.5 38.27L148.1 38.76Z" fill="#F21365"/>
<path d="M28 129.39C28.3779 129.769 28.635 130.252 28.7387 130.778C28.8424 131.303 28.7881 131.848 28.5827 132.342C28.3773 132.837 28.0299 133.259 27.5845 133.557C27.1391 133.854 26.6155 134.013 26.08 134.013C25.5445 134.013 25.0209 133.854 24.5755 133.557C24.1301 133.259 23.7827 132.837 23.5773 132.342C23.3719 131.848 23.3176 131.303 23.4213 130.778C23.525 130.252 23.7821 129.769 24.16 129.39C24.4111 129.136 24.7101 128.934 25.0397 128.797C25.3692 128.659 25.7228 128.588 26.08 128.588C26.4371 128.588 26.7907 128.659 27.1203 128.797C27.4499 128.934 27.7489 129.136 28 129.39Z" fill="#F21365"/>
<path d="M181 45.36C181 45.896 180.841 46.42 180.543 46.8656C180.245 47.3113 179.822 47.6586 179.327 47.8637C178.832 48.0688 178.287 48.1225 177.761 48.018C177.236 47.9134 176.753 47.6553 176.374 47.2763C175.995 46.8973 175.737 46.4144 175.632 45.8887C175.527 45.363 175.581 44.8181 175.786 44.323C175.991 43.8278 176.339 43.4045 176.784 43.1067C177.23 42.809 177.754 42.65 178.29 42.65C179.009 42.65 179.698 42.9355 180.206 43.4438C180.714 43.952 181 44.6413 181 45.36Z" fill="#F21365"/>
<path d="M45.08 138.3C45.08 138.436 45.0395 138.57 44.9637 138.683C44.8878 138.797 44.7801 138.885 44.654 138.937C44.5279 138.99 44.3892 139.003 44.2553 138.977C44.1215 138.95 43.9985 138.884 43.902 138.788C43.8056 138.691 43.7398 138.568 43.7132 138.435C43.6866 138.301 43.7002 138.162 43.7525 138.036C43.8047 137.91 43.8931 137.802 44.0066 137.726C44.1201 137.65 44.2535 137.61 44.39 137.61C44.573 137.61 44.7485 137.683 44.8779 137.812C45.0073 137.941 45.08 138.117 45.08 138.3Z" fill="#F21365"/>
<path d="M59.79 62.32C59.79 62.4565 59.7496 62.5899 59.6737 62.7033C59.5979 62.8168 59.4902 62.9053 59.3641 62.9575C59.238 63.0097 59.0993 63.0234 58.9654 62.9967C58.8316 62.9701 58.7086 62.9044 58.6121 62.8079C58.5156 62.7114 58.4499 62.5885 58.4233 62.4546C58.3967 62.3208 58.4103 62.182 58.4626 62.056C58.5148 61.9299 58.6032 61.8221 58.7167 61.7463C58.8302 61.6705 58.9636 61.63 59.1 61.63C59.283 61.63 59.4585 61.7027 59.5879 61.8321C59.7173 61.9615 59.79 62.137 59.79 62.32Z" fill="#F21365"/>
<path d="M167.33 99.2501C167.33 99.3865 167.289 99.5199 167.214 99.6334C167.138 99.7469 167.03 99.8353 166.904 99.8875C166.778 99.9398 166.639 99.9534 166.505 99.9268C166.371 99.9002 166.249 99.8345 166.152 99.738C166.056 99.6415 165.99 99.5185 165.963 99.3847C165.937 99.2508 165.95 99.1121 166.002 98.986C166.055 98.8599 166.143 98.7522 166.257 98.6763C166.37 98.6005 166.503 98.5601 166.64 98.5601C166.823 98.5601 166.998 98.6328 167.128 98.7622C167.257 98.8916 167.33 99.0671 167.33 99.2501Z" fill="#F21365"/>
<path d="M176.9 67.12C176.902 67.2569 176.863 67.3913 176.789 67.506C176.714 67.6208 176.607 67.7108 176.481 67.7646C176.355 67.8183 176.216 67.8334 176.082 67.808C175.947 67.7825 175.823 67.7176 175.726 67.6215C175.628 67.5254 175.561 67.4025 175.534 67.2683C175.507 67.1342 175.52 66.995 175.572 66.8683C175.623 66.7417 175.712 66.6333 175.826 66.557C175.939 66.4808 176.073 66.44 176.21 66.44C176.3 66.4387 176.39 66.4553 176.473 66.4889C176.557 66.5225 176.633 66.5723 176.697 66.6356C176.761 66.6989 176.812 66.7743 176.847 66.8575C176.882 66.9406 176.9 67.0299 176.9 67.12Z" fill="#F21365"/>
</svg>
